<?xml version="1.0" encoding="UTF-8" standalone="no"?>
<!-- Created with Inkscape (http://www.inkscape.org/) -->

<svg
   xmlns:dc="http://purl.org/dc/elements/1.1/"
   xmlns:cc="http://creativecommons.org/ns#"
   xmlns:rdf="http://www.w3.org/1999/02/22-rdf-syntax-ns#"
   xmlns:svg="http://www.w3.org/2000/svg"
   xmlns="http://www.w3.org/2000/svg"
   xmlns:sodipodi="http://sodipodi.sourceforge.net/DTD/sodipodi-0.dtd"
   xmlns:inkscape="http://www.inkscape.org/namespaces/inkscape"
   width="744.09448819"
   height="1052.3622047"
   id="svg2"
   version="1.1"
   inkscape:version="0.48.3.1 r9886"
   sodipodi:docname="New document 1">
  <defs
     id="defs4">
    <inkscape:path-effect
       effect="skeletal"
       id="path-effect4227"
       is_visible="true"
       pattern="m 313.7415,-155.35676 c 0,-2.76 2.24,-5 5,-5 2.76,0 5,2.24 5,5 0,2.76 -2.24,5 -5,5 -2.76,0 -5,-2.24 -5,-5 z"
       copytype="single_stretched"
       prop_scale="1"
       scale_y_rel="false"
       spacing="0"
       normal_offset="0"
       tang_offset="0"
       prop_units="false"
       vertical_pattern="false"
       fuse_tolerance="0" />
    <inkscape:path-effect
       effect="skeletal"
       id="path-effect4223"
       is_visible="true"
       pattern="m 313.7415,-155.35676 c 0,-2.76 2.24,-5 5,-5 2.76,0 5,2.24 5,5 0,2.76 -2.24,5 -5,5 -2.76,0 -5,-2.24 -5,-5 z"
       copytype="single_stretched"
       prop_scale="1"
       scale_y_rel="false"
       spacing="0"
       normal_offset="0"
       tang_offset="0"
       prop_units="false"
       vertical_pattern="false"
       fuse_tolerance="0" />
    <inkscape:path-effect
       effect="skeletal"
       id="path-effect4219"
       is_visible="true"
       pattern="m 313.7415,-155.35676 c 0,-2.76 2.24,-5 5,-5 2.76,0 5,2.24 5,5 0,2.76 -2.24,5 -5,5 -2.76,0 -5,-2.24 -5,-5 z"
       copytype="single_stretched"
       prop_scale="1"
       scale_y_rel="false"
       spacing="0"
       normal_offset="0"
       tang_offset="0"
       prop_units="false"
       vertical_pattern="false"
       fuse_tolerance="0" />
    <inkscape:path-effect
       effect="skeletal"
       id="path-effect4215"
       is_visible="true"
       pattern="m 313.7415,-155.35676 c 0,-2.76 2.24,-5 5,-5 2.76,0 5,2.24 5,5 0,2.76 -2.24,5 -5,5 -2.76,0 -5,-2.24 -5,-5 z"
       copytype="single_stretched"
       prop_scale="1"
       scale_y_rel="false"
       spacing="0"
       normal_offset="0"
       tang_offset="0"
       prop_units="false"
       vertical_pattern="false"
       fuse_tolerance="0" />
    <inkscape:path-effect
       effect="skeletal"
       id="path-effect4211"
       is_visible="true"
       pattern="m 313.7415,-155.35676 c 0,-2.76 2.24,-5 5,-5 2.76,0 5,2.24 5,5 0,2.76 -2.24,5 -5,5 -2.76,0 -5,-2.24 -5,-5 z"
       copytype="single_stretched"
       prop_scale="1"
       scale_y_rel="false"
       spacing="0"
       normal_offset="0"
       tang_offset="0"
       prop_units="false"
       vertical_pattern="false"
       fuse_tolerance="0" />
    <inkscape:path-effect
       effect="skeletal"
       id="path-effect4203"
       is_visible="true"
       pattern="m 313.7415,-155.35676 c 0,-2.76 2.24,-5 5,-5 2.76,0 5,2.24 5,5 0,2.76 -2.24,5 -5,5 -2.76,0 -5,-2.24 -5,-5 z"
       copytype="single_stretched"
       prop_scale="1"
       scale_y_rel="false"
       spacing="0"
       normal_offset="0"
       tang_offset="0"
       prop_units="false"
       vertical_pattern="false"
       fuse_tolerance="0" />
    <inkscape:path-effect
       effect="skeletal"
       id="path-effect4199"
       is_visible="true"
       pattern="m 313.7415,-155.35676 c 0,-2.76 2.24,-5 5,-5 2.76,0 5,2.24 5,5 0,2.76 -2.24,5 -5,5 -2.76,0 -5,-2.24 -5,-5 z"
       copytype="single_stretched"
       prop_scale="1"
       scale_y_rel="false"
       spacing="0"
       normal_offset="0"
       tang_offset="0"
       prop_units="false"
       vertical_pattern="false"
       fuse_tolerance="0" />
    <inkscape:path-effect
       effect="skeletal"
       id="path-effect4195"
       is_visible="true"
       pattern="m 313.7415,-155.35676 c 0,-2.76 2.24,-5 5,-5 2.76,0 5,2.24 5,5 0,2.76 -2.24,5 -5,5 -2.76,0 -5,-2.24 -5,-5 z"
       copytype="single_stretched"
       prop_scale="1"
       scale_y_rel="false"
       spacing="0"
       normal_offset="0"
       tang_offset="0"
       prop_units="false"
       vertical_pattern="false"
       fuse_tolerance="0" />
    <inkscape:path-effect
       effect="skeletal"
       id="path-effect4191"
       is_visible="true"
       pattern="m 313.7415,-155.35676 c 0,-2.76 2.24,-5 5,-5 2.76,0 5,2.24 5,5 0,2.76 -2.24,5 -5,5 -2.76,0 -5,-2.24 -5,-5 z"
       copytype="single_stretched"
       prop_scale="1"
       scale_y_rel="false"
       spacing="0"
       normal_offset="0"
       tang_offset="0"
       prop_units="false"
       vertical_pattern="false"
       fuse_tolerance="0" />
    <inkscape:path-effect
       effect="skeletal"
       id="path-effect4183"
       is_visible="true"
       pattern="m 313.7415,-155.35676 c 0,-2.76 2.24,-5 5,-5 2.76,0 5,2.24 5,5 0,2.76 -2.24,5 -5,5 -2.76,0 -5,-2.24 -5,-5 z"
       copytype="single_stretched"
       prop_scale="1"
       scale_y_rel="false"
       spacing="0"
       normal_offset="0"
       tang_offset="0"
       prop_units="false"
       vertical_pattern="false"
       fuse_tolerance="0" />
    <inkscape:path-effect
       effect="skeletal"
       id="path-effect4179"
       is_visible="true"
       pattern="m 313.7415,-155.35676 c 0,-2.76 2.24,-5 5,-5 2.76,0 5,2.24 5,5 0,2.76 -2.24,5 -5,5 -2.76,0 -5,-2.24 -5,-5 z"
       copytype="single_stretched"
       prop_scale="1"
       scale_y_rel="false"
       spacing="0"
       normal_offset="0"
       tang_offset="0"
       prop_units="false"
       vertical_pattern="false"
       fuse_tolerance="0" />
    <inkscape:path-effect
       effect="skeletal"
       id="path-effect4175"
       is_visible="true"
       pattern="m 313.7415,-155.35676 c 0,-2.76 2.24,-5 5,-5 2.76,0 5,2.24 5,5 0,2.76 -2.24,5 -5,5 -2.76,0 -5,-2.24 -5,-5 z"
       copytype="single_stretched"
       prop_scale="1"
       scale_y_rel="false"
       spacing="0"
       normal_offset="0"
       tang_offset="0"
       prop_units="false"
       vertical_pattern="false"
       fuse_tolerance="0" />
    <inkscape:path-effect
       effect="skeletal"
       id="path-effect4171"
       is_visible="true"
       pattern="m 313.7415,-155.35676 c 0,-2.76 2.24,-5 5,-5 2.76,0 5,2.24 5,5 0,2.76 -2.24,5 -5,5 -2.76,0 -5,-2.24 -5,-5 z"
       copytype="single_stretched"
       prop_scale="1"
       scale_y_rel="false"
       spacing="0"
       normal_offset="0"
       tang_offset="0"
       prop_units="false"
       vertical_pattern="false"
       fuse_tolerance="0" />
    <inkscape:path-effect
       effect="skeletal"
       id="path-effect4155"
       is_visible="true"
       pattern="m 313.7415,-155.35676 c 0,-2.76 2.24,-5 5,-5 2.76,0 5,2.24 5,5 0,2.76 -2.24,5 -5,5 -2.76,0 -5,-2.24 -5,-5 z"
       copytype="single_stretched"
       prop_scale="1"
       scale_y_rel="false"
       spacing="0"
       normal_offset="0"
       tang_offset="0"
       prop_units="false"
       vertical_pattern="false"
       fuse_tolerance="0" />
    <inkscape:path-effect
       effect="skeletal"
       id="path-effect4111"
       is_visible="true"
       pattern="m 313.7415,-155.35676 c 0,-2.76 2.24,-5 5,-5 2.76,0 5,2.24 5,5 0,2.76 -2.24,5 -5,5 -2.76,0 -5,-2.24 -5,-5 z"
       copytype="single_stretched"
       prop_scale="1"
       scale_y_rel="false"
       spacing="0"
       normal_offset="0"
       tang_offset="0"
       prop_units="false"
       vertical_pattern="false"
       fuse_tolerance="0" />
  </defs>
  <sodipodi:namedview
     id="base"
     pagecolor="#ffffff"
     bordercolor="#666666"
     borderopacity="1.0"
     inkscape:pageopacity="0.0"
     inkscape:pageshadow="2"
     inkscape:zoom="0.40568182"
     inkscape:cx="327.05014"
     inkscape:cy="748.93279"
     inkscape:document-units="px"
     inkscape:current-layer="layer1"
     showgrid="false"
     inkscape:window-width="800"
     inkscape:window-height="543"
     inkscape:window-x="0"
     inkscape:window-y="0"
     inkscape:window-maximized="1" />
  <metadata
     id="metadata7">
    <rdf:RDF>
      <cc:Work
         rdf:about="">
        <dc:format>image/svg+xml</dc:format>
        <dc:type
           rdf:resource="http://purl.org/dc/dcmitype/StillImage" />
        <dc:title></dc:title>
      </cc:Work>
    </rdf:RDF>
  </metadata>
  <g
     inkscape:label="Layer 1"
     inkscape:groupmode="layer"
     id="layer1">
    <path
       style="fill:#000000;fill-rule:evenodd;stroke:none"
       d="m 263.56639,293.83733 c 1.37802,0.074 2.50819,2.01726 3.35809,5.04286 0.84991,3.0256 1.44926,7.15615 1.59375,11.79873 0.0134,0.43214 0.0225,0.86109 0.0271,1.28627 0,0 0,0 0,0 0.0517,4.35471 -0.34337,8.23065 -1.04556,11.07088 -0.70218,2.84024 -1.72894,4.6576 -3.03931,4.77672 -1.31037,0.11912 -2.67164,-1.51044 -3.75754,-4.31465 -1.08591,-2.80421 -1.87638,-6.77353 -2.12306,-11.19413 0,0 0,0 0,0 -0.0245,-0.43152 -0.044,-0.86821 -0.0581,-1.30945 -0.15178,-4.74035 0.37236,-9.11633 1.33518,-12.24406 0.96282,-3.12773 2.33142,-4.98714 3.70944,-4.91317 z"
       id="path4109"
       inkscape:path-effect="#path-effect4111"
       inkscape:original-d="m 263.56639,293.83733 c -0.56417,10.51031 0.25607,26.95725 0.89409,33.97546"
       inkscape:connector-curvature="0" />
    <path
       style="fill:#000000;fill-rule:evenodd;stroke:none"
       d="m 251.94321,284.89641 c 0.0578,0.42651 -1.38697,1.01768 -4.08058,1.88324 -1.34681,0.43278 -3.00443,0.93813 -4.91734,1.57446 -1.91291,0.63632 -4.08189,1.40216 -6.42015,2.41032 -1.47963,0.64671 -3.02602,1.37216 -4.54092,2.24143 -1.5149,0.86928 -2.99885,1.88186 -4.30153,3.14124 -1.53234,1.50157 -2.87598,3.32379 -3.25803,5.28292 -0.42442,1.66152 -0.19181,3.66123 0.43785,5.67947 0.73159,2.29848 2.1264,4.59615 3.85047,6.94324 1.95859,2.62599 4.3702,5.14685 7.07954,7.64048 0,0 0,10e-6 1e-5,10e-6 5.88287,5.40541 13.01802,10.37398 20.98711,15.03391 7.63204,4.44446 15.95607,8.52371 24.87936,11.84033 5.53305,2.03222 11.18654,3.85286 16.91752,4.86702 1.81445,0.32109 3.6189,0.55728 5.41235,0.69386 2.84528,0.2018 5.50872,0.21853 7.852,-0.30526 0,0 0,0 1e-5,0 1.8349,-0.46341 3.4318,-1.01605 4.29022,-1.92527 0.42393,-0.38352 0.78858,-0.85491 1.05359,-1.35877 0.31147,-0.55769 0.51734,-1.27257 0.66,-2.06027 0.45358,-2.22455 -0.0702,-4.89926 -0.76851,-7.73006 -1.82273,-6.5583 -3.79977,-12.80955 -6.15131,-18.50254 -2.35155,-5.69299 -5.07823,-10.82782 -8.248,-15.29129 -2.32533,-3.27459 -4.92162,-6.16123 -7.66581,-8.5242 -2.74419,-2.36296 -5.63647,-4.20315 -8.57009,-5.50124 -3.04287,-1.39533 -6.15626,-2.23731 -9.13619,-2.82851 -2.97993,-0.59121 -5.82732,-0.92964 -8.41873,-1.18882 -2.64442,-0.25178 -5.07665,-0.41593 -7.20214,-0.63026 -2.12549,-0.21434 -3.94485,-0.47243 -5.4062,-0.76847 -2.92269,-0.59206 -4.40079,-1.292 -4.3345,-1.72287 0.0663,-0.43087 1.63413,-0.57054 4.49558,-0.79217 1.43072,-0.11081 3.1899,-0.25235 5.283,-0.42359 2.09309,-0.17123 4.52064,-0.3786 7.30448,-0.47211 2.71889,-0.10436 5.77579,-0.0968 9.12092,0.23681 3.34512,0.33361 6.97991,0.99153 10.7898,2.32749 3.66465,1.33176 7.31481,3.29229 10.77114,5.8755 3.45633,2.58322 6.7185,5.79014 9.58238,9.49574 3.79111,4.89986 7.09028,10.4943 9.89685,16.59397 2.80656,6.09968 5.1203,12.70376 7.10106,19.49108 1.0846,3.42524 1.76732,7.43479 1.2097,11.83013 -0.23251,1.66834 -0.73827,3.38088 -1.56911,5.05711 -0.77531,1.53059 -1.8117,2.91995 -3.07425,4.10704 -2.72974,2.43241 -5.88158,3.83597 -8.92134,4.42234 0,0 -1e-5,0 -1e-5,0 -3.68323,0.77403 -7.31914,0.84241 -10.73371,0.54819 -2.13509,-0.1747 -4.25425,-0.45356 -6.35449,-0.82182 -6.63366,-1.16318 -12.87018,-3.1733 -18.68735,-5.42713 -9.50946,-3.64392 -18.28441,-8.13844 -26.22265,-13.04902 -8.27921,-5.10247 -15.79306,-10.78426 -22.00106,-17.00353 -10e-6,0 -10e-6,-10e-6 -10e-6,-10e-6 -2.87283,-2.8733 -5.49295,-5.94063 -7.67056,-9.2052 -1.94529,-2.87863 -3.53662,-6.07328 -4.42963,-9.4652 -0.83858,-3.1245 -0.83224,-6.46555 0.10826,-9.55032 1.2066,-3.56511 3.43981,-6.19965 5.84343,-8.02675 1.92486,-1.47017 3.88499,-2.5447 5.77423,-3.37864 1.88925,-0.83394 3.70825,-1.42686 5.39633,-1.88684 2.66786,-0.74078 5.07037,-1.19084 7.16283,-1.48318 2.09245,-0.29234 3.87561,-0.4255 5.32259,-0.47084 2.89394,-0.0907 4.44381,0.15034 4.50159,0.57685 z"
       id="path4153"
       inkscape:path-effect="#path-effect4155"
       inkscape:original-d="m 251.94321,284.89641 c -104.25232,14.12421 87.44386,116.66178 69.73909,54.53956 -18.24165,-64.00602 -49.16083,-50.47958 -69.73909,-53.64546"
       inkscape:connector-curvature="0"
       sodipodi:nodetypes="csc" />
    <path
       style="fill:#000000;fill-rule:evenodd;stroke:none"
       d="m 423.60867,292.94324 c 1.37839,-0.0666 2.75206,1.96422 3.65647,5.3781 0.9044,3.41388 1.28871,8.17688 0.97846,13.27187 -0.004,0.0633 -0.008,0.12646 -0.0118,0.18954 -0.31948,5.08134 -1.25552,9.60664 -2.43722,12.82 -1.1817,3.21336 -2.60826,5.12238 -3.97406,4.99822 -1.3658,-0.12416 -2.41522,-2.26008 -3.03672,-5.59774 -0.6215,-3.33766 -0.81663,-7.86992 -0.53349,-12.8201 0.004,-0.0623 0.007,-0.12461 0.0107,-0.18701 0.29498,-5.02371 1.02938,-9.44599 1.9363,-12.67745 0.90692,-3.23147 2.03296,-5.30879 3.41135,-5.37543 z"
       id="path4169"
       inkscape:path-effect="#path-effect4171"
       inkscape:original-d="m 423.60867,292.94324 c 0.50511,10.44852 -0.88943,26.77144 -1.78818,36.65773"
       inkscape:connector-curvature="0"
       sodipodi:nodetypes="cc" />
    <path
       style="fill:#000000;fill-rule:evenodd;stroke:none"
       d="m 387.84503,318.87187 c -0.30007,-0.0201 -0.58359,-0.80025 -0.58752,-2.32612 -0.004,-1.52587 0.31004,-3.81686 1.3867,-6.54575 1.01924,-2.59414 2.70252,-5.58291 5.10196,-8.63171 0,0 10e-6,0 10e-6,0 1.9627,-2.4965 4.37431,-5.08453 7.23244,-7.65456 2.85812,-2.57003 6.16484,-5.12028 9.81006,-7.59319 5.95151,-4.05749 12.92631,-8.00663 20.78591,-11.5315 10e-6,0 10e-6,0 10e-6,0 5.65391,-2.54894 11.86911,-4.99618 18.76395,-6.65114 4.33794,-1.07491 9.2032,-1.59636 14.32427,-0.7629 3.8501,0.64249 7.69065,2.28655 10.9567,5.06499 2.94579,2.60553 5.11418,5.88709 6.43203,9.42641 1.40668,3.76139 2.03886,7.69168 2.08633,11.53057 0.0885,6.26883 -1.069,12.53502 -3.21717,18.46819 -0.77084,2.12904 -1.66039,4.19335 -2.64749,6.1807 -3.92724,8.08918 -9.73981,15.24355 -17.02333,20.24592 -4.24973,2.87425 -8.64512,5.1454 -12.9645,7.06934 -5.18414,2.31817 -10.36797,4.18732 -15.44616,5.70769 -5.54937,1.66439 -11.02016,2.92009 -16.32324,3.75972 -5.33291,0.8502 -10.56941,1.27216 -15.56215,1.12878 -4.58358,-0.10458 -9.1475,-0.78395 -13.25237,-2.33824 -1.8721,-0.71087 -3.66454,-1.67438 -5.26195,-2.89478 -1.57248,-1.20359 -2.8819,-2.68806 -3.84879,-4.34207 -1.06262,-1.86099 -1.62106,-3.80173 -1.81694,-5.65046 -0.24998,-2.43401 0.0195,-4.6282 0.47709,-6.54454 0.68543,-2.85013 1.67013,-5.2012 2.65971,-7.15182 0.98959,-1.95061 1.9887,-3.50051 2.85633,-4.70699 0.86763,-1.20648 1.60784,-2.06903 2.16672,-2.60936 0.55889,-0.54032 0.93893,-0.75774 1.12321,-0.64717 0.18428,0.11057 0.16742,0.54666 -0.026,1.29014 -0.1934,0.74347 -0.56593,1.79496 -1.05544,3.14074 -0.48952,1.34579 -1.10015,2.98603 -1.68097,4.90568 -0.58082,1.91966 -1.13648,4.11852 -1.36066,6.58063 -0.14703,1.61465 -0.16312,3.3068 0.21382,4.90776 0.27585,1.18743 0.74686,2.35884 1.46397,3.32763 0.62733,0.88081 1.50473,1.67392 2.53383,2.33818 1.06808,0.69334 2.35464,1.22771 3.77989,1.66392 3.19437,0.98499 6.9358,1.21254 11.03904,1.11996 4.42605,-0.13037 9.12783,-0.7769 14.05639,-1.7831 4.88403,-1.00332 9.93135,-2.3784 15.08254,-4.11153 4.71316,-1.58847 9.48421,-3.46264 14.20703,-5.71225 3.95122,-1.88936 7.83102,-3.97514 11.39624,-6.48858 5.63554,-3.90414 10.24379,-9.82366 13.59383,-16.59828 0.81448,-1.69238 1.55344,-3.43097 2.19698,-5.20363 1.79341,-4.94002 2.78824,-10.00141 2.71415,-14.90778 -0.0514,-2.95719 -0.42941,-5.77681 -1.35113,-8.23305 -0.84502,-2.23632 -2.05754,-4.24388 -3.62756,-5.61417 -1.62825,-1.53058 -3.90688,-2.51765 -6.27898,-3.01849 -3.31779,-0.71718 -6.99121,-0.35551 -10.64141,0.34472 -6.13754,1.24113 -11.96859,3.29263 -17.49599,5.45785 0,0 0,0 -10e-6,0 -7.60562,2.99542 -14.40503,6.32586 -20.29848,9.74805 -3.61513,2.11175 -6.8875,4.21696 -9.74601,6.32396 -2.85852,2.107 -5.30553,4.21444 -7.36396,6.25993 0,1e-5 0,1e-5 0,1e-5 -2.49983,2.48506 -4.3776,4.83685 -5.7009,6.92287 -1.38183,2.18292 -2.18563,4.04667 -2.71992,5.33828 -0.53429,1.29162 -0.84206,2.02064 -1.14213,2.00054 z"
       id="path4173"
       inkscape:path-effect="#path-effect4175"
       inkscape:original-d="m 387.84503,318.87187 c 1.4674,-21.90618 43.52787,-42.05881 63.48046,-46.49273 38.68711,-8.59713 33.19319,43.73978 7.15273,61.69228 -27.37943,18.87559 -101.86444,33.87224 -72.42137,-15.19954"
       inkscape:connector-curvature="0"
       sodipodi:nodetypes="cssc" />
    <path
       style="fill:#000000;fill-rule:evenodd;stroke:none"
       d="m 348.50503,368.94097 c -0.24859,-0.55954 0.92295,-1.74107 3.36067,-3.34973 2.43772,-1.60866 6.13804,-3.66286 11.09955,-5.6466 3.14652,-1.2705 6.89848,-2.56901 11.4195,-3.16368 2.37963,-0.38672 5.33332,-0.43824 8.66223,0.7239 1.16123,0.43066 2.33536,1.13697 3.43477,2.16679 0.97149,0.95159 1.72893,2.08174 2.22499,3.34026 0.93683,2.71188 0.97611,5.32258 0.44377,7.43938 -0.55269,2.66136 -1.53091,5.11137 -2.68972,7.29168 -2.71729,5.20013 -6.49725,9.98898 -10.83859,14.20171 -0.9143,0.90314 -1.86657,1.79333 -2.85822,2.66243 -3.69574,3.23901 -7.7803,6.03089 -12.16717,8.10025 -2.51267,1.19645 -5.27722,2.12445 -8.20823,2.57003 -2.65591,0.4328 -5.5504,0.25708 -8.36773,-0.68807 -2.99003,-1.10904 -5.34541,-3.03822 -6.95929,-5.33293 -2.15565,-3.15627 -3.13082,-6.4008 -3.56308,-9.29541 -0.79572,-4.9129 -0.56102,-9.26548 -0.12487,-12.955 0,0 0,0 0,0 0.64093,-5.56187 1.76736,-9.85383 2.77195,-12.74211 1.00458,-2.88829 1.90776,-4.37594 2.52447,-4.26381 0.61671,0.11213 0.89557,1.82009 0.99523,4.80602 0.0997,2.98592 -10e-5,7.25381 0.26005,12.43218 0,0 0,0 0,0 0.18284,3.45542 0.45489,7.27581 1.51149,11.02521 0.65412,2.18576 1.41539,4.2841 2.68475,5.6738 0.79739,0.90574 1.81745,1.64716 2.83401,1.87826 1.02069,0.33861 2.38954,0.26013 3.905,0.018 1.73159,-0.30884 3.558,-1.03966 5.4779,-1.97606 3.38695,-1.67122 6.65745,-4.01424 9.8247,-6.78647 0.84984,-0.74385 1.68225,-1.50897 2.49836,-2.28774 3.81476,-3.71476 7.08185,-7.57174 9.37127,-11.60855 0.94532,-1.70162 1.71514,-3.25905 2.07319,-4.72111 0.19262,-1.16543 0.41747,-1.99839 0.22398,-2.30793 -0.0158,-0.1097 -0.0506,-0.22721 -0.0866,-0.29229 -0.0317,-0.1117 -0.23744,-0.25293 -0.52222,-0.42955 -1.01659,-0.66288 -2.77797,-0.68326 -4.72102,-0.73363 -3.55794,0.0339 -7.0072,0.74164 -10.14454,1.40308 -4.88767,1.04434 -8.84037,2.12526 -11.64452,2.71132 -2.80414,0.58607 -4.45749,0.6959 -4.70608,0.13636 z"
       id="path4177"
       inkscape:path-effect="#path-effect4179"
       inkscape:original-d="m 348.50503,368.94097 c 95.43881,-42.40073 -29.12893,97.17571 -9.835,-8.94091"
       inkscape:connector-curvature="0" />
    <path
       style="fill:#000000;fill-rule:evenodd;stroke:none"
       d="m 259.09593,414.5396 c 0.21636,-0.6552 2.8881,-0.42479 7.53884,0.2989 4.65074,0.72368 11.29101,1.91469 19.51958,2.99296 8.22858,1.07827 18.05284,2.02742 29.00597,2.40176 10.95313,0.37434 23.03543,0.16906 35.65539,-0.76857 0.15804,-0.0117 0.31598,-0.0236 0.47381,-0.0355 12.59383,-0.95459 24.56995,-2.42391 35.49574,-3.88132 10.9258,-1.45742 20.79903,-2.89482 29.12877,-3.97887 8.32975,-1.08405 15.1131,-1.81967 19.84138,-2.08973 4.72828,-0.27007 7.40022,-0.0868 7.52326,0.58994 0.12304,0.67674 -2.31117,1.78309 -6.81497,3.22643 -4.5038,1.44333 -11.07588,3.23589 -19.26327,5.21342 -8.1874,1.97753 -17.99197,4.14549 -28.99114,6.12445 -10.99918,1.97896 -23.19702,3.7615 -36.15521,4.76628 -0.16316,0.0127 -0.32645,0.0252 -0.48984,0.0376 -13.04776,0.98893 -25.6022,0.91119 -36.93508,-6.6e-4 -11.33289,-0.91186 -21.44044,-2.64945 -29.77223,-4.66865 -8.33178,-2.01919 -14.89285,-4.30106 -19.30135,-6.19599 -4.40851,-1.89494 -6.67601,-3.37723 -6.45965,-4.03243 z"
       id="path4181"
       inkscape:path-effect="#path-effect4183"
       inkscape:original-d="m 259.09593,414.5396 c 63.52834,20.97778 121.9464,6.84525 184.18274,-4.47045"
       inkscape:connector-curvature="0" />
    <path
       style="fill:#000000;fill-rule:evenodd;stroke:none"
       d="m 301.11821,422.58642 c 0.41454,-0.008 0.83838,1.14622 1.27647,3.32516 0.43809,2.17893 0.88747,5.38352 1.40127,9.46188 0.5138,4.07835 1.08844,9.03116 1.87697,14.67806 0.78852,5.64691 1.78895,11.98773 3.29751,18.80937 1.00072,4.50447 2.18507,9.15588 4.00665,13.64841 1.21245,2.91954 2.5413,5.70627 4.4019,7.8307 1.25932,1.39669 2.62384,2.57496 4.0137,2.95922 1.18865,0.45837 2.75939,0.41953 4.38138,0.11134 2.00442,-0.39131 4.10359,-1.41256 6.32105,-2.67302 2.67019,-1.55553 5.26914,-3.52798 7.89587,-5.70615 2.07803,-1.72777 4.12167,-3.55998 6.14523,-5.47593 4.40858,-4.17415 8.56296,-8.5853 12.6361,-12.9486 7.65602,-8.219 14.80474,-16.2731 21.60123,-23.62158 8.57554,-9.27494 16.5732,-17.42998 23.66518,-23.90025 0,0 0,0 10e-6,-1e-5 3.59419,-3.28232 6.95633,-6.15149 9.99805,-8.55427 3.04172,-2.40278 5.76122,-4.34155 8.05044,-5.82154 4.57845,-2.95998 7.39617,-4.11846 7.78009,-3.58097 0.19196,0.26875 -0.22349,0.95559 -1.16094,2.03709 -0.93744,1.08151 -2.39492,2.56007 -4.27031,4.44818 -1.87539,1.88812 -4.16677,4.18865 -6.78497,6.90971 -2.6182,2.72105 -5.56177,5.8652 -8.78,9.39464 0,0 0,0 0,0 -6.33186,6.95227 -13.64106,15.44641 -21.77366,25.0259 -6.43217,7.57948 -13.37475,15.858 -21.05356,24.33988 -4.04891,4.48228 -8.33208,9.08583 -13.03924,13.53362 -2.16061,2.04156 -4.37435,4.01403 -6.65206,5.89421 -2.88464,2.38704 -5.97427,4.65303 -9.33523,6.57149 -2.74645,1.59879 -5.8759,2.94635 -9.34023,3.64818 -3.05135,0.62596 -6.35833,0.45775 -9.53531,-0.66695 -3.44846,-1.37021 -6.10196,-3.58958 -7.98365,-6.0616 -2.66557,-3.45036 -4.32585,-7.12225 -5.50134,-10.57572 -1.85681,-5.32447 -2.89505,-10.48584 -3.62772,-15.28665 -1.11215,-7.24688 -1.62037,-13.87265 -1.84456,-19.71688 -0.22418,-5.84422 -0.16266,-10.90815 0.0102,-15.05924 0.17283,-4.1511 0.46046,-7.39052 0.79371,-9.59497 0.33325,-2.20445 0.71525,-3.37441 1.12979,-3.38271 z"
       id="path4189"
       inkscape:path-effect="#path-effect4191"
       inkscape:original-d="m 301.11821,422.58642 c 3.21307,160.55974 66.01341,23.35302 128.7491,-21.45818"
       inkscape:connector-curvature="0" />
    <path
       style="fill:#000000;fill-rule:evenodd;stroke:none"
       d="m 426.29095,229.46278 c 0.53644,-1.27147 4.17504,-1.08428 9.61963,0.19543 5.4446,1.2797 12.6886,3.64804 20.49951,6.63857 7.8109,2.99052 14.7397,6.0122 19.66258,8.58074 4.92287,2.56855 7.83663,4.72164 7.44009,6.04344 -0.39654,1.3218 -4.05783,1.5539 -9.64511,0.67082 -5.58729,-0.88309 -13.08075,-2.91426 -21.03156,-5.95511 -7.95082,-3.04086 -14.85709,-6.48137 -19.63728,-9.44653 -4.78018,-2.96516 -7.4443,-5.45589 -6.90786,-6.72736 z"
       id="path4193"
       inkscape:path-effect="#path-effect4195"
       inkscape:original-d="m 426.29095,229.46278 c 19.02257,8.02582 37.68928,15.59843 57.22181,21.45818"
       inkscape:connector-curvature="0" />
    <path
       style="fill:#000000;fill-rule:evenodd;stroke:none"
       d="m 268.93093,238.40369 c 0.10819,0.68147 -0.6257,1.45538 -1.99637,2.31479 -1.37067,0.8594 -3.37667,1.81108 -5.84902,2.88924 -2.47234,1.07817 -5.41195,2.28724 -8.68952,3.61602 -3.27758,1.32877 -6.89536,2.77782 -10.73894,4.25269 -0.27319,0.10483 -0.54568,0.20905 -0.81744,0.31262 -3.7433,1.43432 -7.35765,2.76695 -10.71132,3.87323 -3.35367,1.10628 -6.44468,1.98433 -9.10155,2.56449 -5.31374,1.1603 -8.85442,1.12079 -9.31765,-0.15308 -0.46323,-1.27387 2.16695,-3.51933 6.72183,-6.31784 2.27744,-1.39925 5.04421,-2.9414 8.20458,-4.53153 3.16038,-1.59013 6.7171,-3.22818 10.58216,-4.75176 0.27879,-0.11046 0.5592,-0.22033 0.84116,-0.32952 3.96702,-1.5363 7.87158,-2.78789 11.50101,-3.69209 3.62942,-0.9042 6.98085,-1.46106 9.83022,-1.69898 2.84936,-0.23792 5.19418,-0.16102 6.84021,0.14276 1.64603,0.30377 2.59245,0.82749 2.70064,1.50896 z"
       id="path4197"
       inkscape:path-effect="#path-effect4199"
       inkscape:original-d="m 268.93093,238.40369 c -20.53239,3.25975 -40.13305,13.4559 -57.22181,19.67"
       inkscape:connector-curvature="0" />
    <path
       style="fill:#000000;fill-rule:evenodd;stroke:none"
       d="m 417.35003,213.36915 c -0.18163,-0.49843 1.02976,-1.47648 3.40326,-2.88616 2.37349,-1.40968 5.90625,-3.25727 10.37572,-5.52572 4.46946,-2.26844 9.87412,-4.9632 16.03362,-8.00686 6.1595,-3.04365 13.07422,-6.43843 20.61472,-9.98747 5.9597,-2.81192 12.41486,-5.77475 19.53023,-8.22641 3.67089,-1.30205 7.71304,-2.48542 12.1097,-3.02155 1.46848,-0.17906 2.96156,-0.28323 4.47591,-0.2964 2.46937,-0.0119 5.03018,0.33589 7.55244,1.14337 2.47675,0.81529 4.74551,2.08918 6.69749,3.72185 2.19163,1.86557 3.89231,4.00378 5.18861,6.19758 1.65811,2.78973 2.81583,5.63086 3.67774,8.36804 1.36728,4.33406 2.21252,8.55549 2.77871,12.5734 0.56619,4.0179 0.85384,7.83255 1.03698,11.3881 0,0 0,0 0,0 0.29572,5.4568 0.3262,10.41819 0.2233,14.78757 -0.1029,4.36939 -0.33978,8.14724 -0.63362,11.24268 -0.58767,6.19088 -1.38374,9.65616 -2.19753,9.65616 -0.81379,0 -1.55648,-3.47351 -2.32656,-9.5891 -0.38503,-3.0578 -0.78139,-6.77494 -1.25227,-11.03645 -0.47088,-4.2615 -1.01561,-9.06718 -1.75147,-14.29439 0,0 0,-1e-5 -1e-5,-1e-5 -0.49163,-3.43297 -1.02957,-7.03075 -1.7634,-10.6867 -0.73384,-3.65595 -1.66378,-7.3696 -3.01236,-11.01127 -0.83929,-2.25877 -1.78809,-4.42433 -3.01766,-6.31152 -0.9546,-1.45178 -2.00747,-2.75532 -3.21258,-3.69112 -1.02093,-0.81919 -2.22108,-1.46411 -3.489,-1.85799 -1.31936,-0.43299 -2.85467,-0.59763 -4.49889,-0.60954 -1.0597,-0.0132 -2.14218,0.0586 -3.24707,0.19911 -3.30807,0.42081 -6.71967,1.43747 -10.18251,2.53002 -6.57183,2.14276 -12.84854,4.8178 -18.89846,7.34482 -7.64905,3.20356 -14.79135,6.1531 -21.24045,8.65563 -6.4491,2.50252 -12.20319,4.55939 -17.03211,6.09993 -9.65786,3.08108 -15.57921,4.12725 -15.94248,3.1304 z"
       id="path4201"
       inkscape:path-effect="#path-effect4203"
       inkscape:original-d="m 417.35003,213.36915 c 82.95862,-30.23151 110.86728,-71.35853 110.86728,41.12818"
       inkscape:connector-curvature="0" />
    <path
       style="fill:#000000;fill-rule:evenodd;stroke:none"
       d="m 184.88639,252.70915 c -0.53713,0.23191 -2.09844,-1.91971 -4.41348,-6.14181 -2.31504,-4.22209 -5.40096,-10.51034 -8.65534,-18.69347 -2.22198,-5.57806 -4.57613,-12.07713 -6.30395,-19.60256 -1.01655,-4.3314 -1.85561,-9.18975 -1.59553,-14.55884 0.0887,-1.81981 0.36719,-3.75921 0.965,-5.76196 0.4758,-1.61232 1.23993,-3.26101 2.37036,-4.83756 1.01932,-1.39293 2.31277,-2.60361 3.83944,-3.54886 1.54154,-0.92971 3.17118,-1.55203 4.79668,-1.88837 3.80225,-0.74659 7.49849,-0.47431 10.774,0.24629 4.24509,0.86155 8.32573,2.26691 12.22606,3.88385 4.66986,1.92198 9.25587,4.17868 13.7768,6.60319 4.66369,2.49964 9.31411,5.18692 13.95116,8.01045 5.92791,3.60955 11.62048,7.30703 17.11063,10.95245 11.90337,7.89903 22.90887,15.65072 32.93576,22.70257 5.96258,4.19245 11.56589,8.14972 16.77964,11.78221 5.21375,3.63249 10.03781,6.94085 14.4102,9.8847 5.31454,3.578 9.95163,6.59601 13.78471,9.02523 3.77877,2.39296 6.75659,4.21414 8.76946,5.52344 2.01286,1.30931 3.04956,2.13251 2.89749,2.51268 -0.15207,0.38017 -1.49108,0.29372 -3.86077,-0.34031 -2.3697,-0.63402 -5.76308,-1.84275 -9.94118,-3.67897 -4.24572,-1.86477 -9.3176,-4.38471 -15.01667,-7.51057 -4.68736,-2.57072 -9.81544,-5.546 -15.29964,-8.87938 -5.48419,-3.33338 -11.32398,-7.02528 -17.46386,-10.97837 -10.34092,-6.65667 -21.52552,-14.10271 -33.40689,-21.77913 -5.49619,-3.549 -11.12105,-7.15432 -16.90097,-10.67642 -4.52128,-2.75513 -9.01035,-5.37896 -13.47547,-7.82302 -4.32544,-2.36623 -8.58417,-4.54479 -12.82385,-6.37808 -3.57924,-1.53562 -7.03241,-2.84388 -10.41333,-3.60143 -2.66653,-0.54096 -5.05371,-0.91273 -6.99241,-0.49593 -0.76887,0.14888 -1.45408,0.35427 -1.97425,0.65887 -0.51034,0.27425 -0.98623,0.68097 -1.37134,1.15178 -0.46821,0.54489 -0.84026,1.30933 -1.16633,2.17237 -0.40787,1.1018 -0.6321,2.36769 -0.78361,3.71313 -0.45671,4.0756 0.079,8.29497 0.72731,12.41039 1.14557,7.05289 2.91607,13.45092 4.53873,19.09792 2.37803,8.26162 4.53857,14.83537 5.87535,19.42368 1.33678,4.58831 1.86722,7.18793 1.33009,7.41984 z"
       id="path4209"
       inkscape:path-effect="#path-effect4211"
       inkscape:original-d="m 184.88639,252.70915 c -67.45053,-156.223014 85.75575,-8.97171 148.41909,16.09363"
       inkscape:connector-curvature="0" />
    <path
       style="fill:#000000;fill-rule:evenodd;stroke:none"
       d="m 524.64095,329.60097 c 0.45966,0.006 0.90331,0.8955 1.25546,2.58368 0.35215,1.68818 0.60745,4.17657 0.60926,7.34664 0.002,3.17007 -0.25491,7.02247 -0.92865,11.38979 -0.67373,4.36732 -1.76812,9.24922 -3.37763,14.42703 -1.59884,5.14842 -3.67815,10.58901 -6.20698,16.15926 -2.52883,5.57024 -5.50613,11.26932 -8.80176,16.96997 -0.0405,0.0701 -0.081,0.14028 -0.1216,0.21043 -4.97772,8.60441 -10.18387,16.43504 -15.00825,23.43533 -4.82438,7.00028 -9.2644,13.17801 -13.00356,18.35164 -3.73916,5.17363 -6.78954,9.34065 -9.05436,12.15305 -2.26482,2.81241 -3.76312,4.2588 -4.37194,3.93409 -0.60882,-0.32471 -0.26667,-2.39701 0.98124,-5.83857 1.24791,-3.44157 3.42083,-8.2414 6.43698,-13.97099 3.01615,-5.72959 6.88362,-12.37965 11.26829,-19.63232 4.38467,-7.25267 9.2785,-15.10642 14.09496,-23.43832 0.0393,-0.0679 0.0785,-0.13583 0.11769,-0.20372 3.18874,-5.53237 6.15252,-10.93029 8.76679,-16.125 2.61428,-5.19471 4.87839,-10.18708 6.76692,-14.88601 1.89244,-4.7107 3.41054,-9.13092 4.61727,-13.10118 1.20673,-3.97027 2.10505,-7.49137 2.82068,-10.42014 0.71562,-2.92877 1.25331,-5.26616 1.74289,-6.87163 0.48958,-1.60547 0.93664,-2.47941 1.3963,-2.47303 z"
       id="path4213"
       inkscape:path-effect="#path-effect4215"
       inkscape:original-d="m 524.64095,329.60097 c -0.66026,47.58342 -37.75126,87.10075 -59.01001,126.96091"
       inkscape:connector-curvature="0" />
    <path
       style="fill:#000000;fill-rule:evenodd;stroke:none"
       d="m 197.40366,361.78824 c 1.23302,-0.61973 5.37415,4.78439 10.89071,14.12782 2.75829,4.67172 5.85628,10.32655 9.12531,16.67841 3.26902,6.35186 6.70907,13.39987 10.19301,20.84132 0.20761,0.44343 0.41422,0.88578 0.61982,1.32696 3.40324,7.30029 6.51378,14.28619 9.27132,20.65764 2.75755,6.37146 5.16282,12.12933 7.09898,17.00642 3.87232,9.75419 5.85763,16.0126 4.65812,16.65234 -1.19951,0.63974 -5.38048,-4.49507 -10.90739,-13.52538 -2.76346,-4.51515 -5.85622,-10.00229 -9.10112,-16.18964 -3.24489,-6.18735 -6.64163,-13.07381 -10.07257,-20.35993 -0.20781,-0.44117 -0.41571,-0.88386 -0.62368,-1.32799 -6.97993,-14.9063 -12.7658,-28.6055 -16.62818,-38.68612 -3.86239,-10.08063 -5.75735,-16.58212 -4.52433,-17.20185 z"
       id="path4217"
       inkscape:path-effect="#path-effect4219"
       inkscape:original-d="m 197.40366,361.78824 c 17.41899,34.65725 35.43531,76.49974 51.85727,107.29091"
       inkscape:connector-curvature="0" />
    <path
       style="fill:#000000;fill-rule:evenodd;stroke:none"
       d="m 370.8573,376.0937 c -0.0289,-0.68939 3.05409,-1.48489 8.66587,-2.28239 5.61178,-0.7975 13.75289,-1.59276 23.83171,-2.22365 10.07882,-0.63088 22.09563,-1.09402 35.44387,-1.22607 13.34824,-0.13205 28.02773,0.0696 43.41634,0.72476 0.88129,0.0375 1.76015,0.0763 2.63646,0.11634 15.07916,0.68727 29.42041,1.74194 42.41486,3.07008 12.99444,1.32814 24.64112,2.92763 34.36417,4.56942 9.72306,1.64179 17.52319,3.31842 22.86014,4.73815 5.33696,1.41972 8.21295,2.57158 8.10114,3.24245 -0.11181,0.67087 -3.1982,0.79896 -8.68539,0.55206 -5.48719,-0.24689 -13.37705,-0.85775 -23.12331,-1.59364 -9.74626,-0.73589 -21.35071,-1.58968 -34.26592,-2.39035 -12.91522,-0.80068 -27.14207,-1.54661 -42.11157,-2.20086 -0.86955,-0.0379 -1.74158,-0.0755 -2.61599,-0.11272 -15.26851,-0.65018 -29.82453,-1.12902 -43.07449,-1.50228 -13.24995,-0.37327 -25.19375,-0.64339 -35.23525,-0.91831 -10.0415,-0.27493 -18.18091,-0.55793 -23.81888,-0.95654 -5.63797,-0.3986 -8.77486,-0.91706 -8.80376,-1.60645 z"
       id="path4221"
       inkscape:path-effect="#path-effect4223"
       inkscape:original-d="m 370.8573,376.0937 c 73.45755,-3.07948 156.02109,-0.22316 221.73456,10.72909"
       inkscape:connector-curvature="0" />
    <path
       style="fill:#000000;fill-rule:evenodd;stroke:none"
       d="m 352.97549,365.3646 c -0.0366,0.68903 -4.43097,1.12279 -12.34885,1.25878 -7.91787,0.13599 -19.35848,-0.039 -33.47158,-0.55185 -14.1131,-0.5129 -30.89717,-1.3704 -49.50416,-2.42673 -18.60698,-1.05633 -39.03561,-2.30703 -60.46202,-3.41592 -1.08617,-0.0562 -2.16973,-0.11177 -3.25056,-0.16663 -21.06423,-1.06262 -41.11278,-1.92025 -59.30713,-2.33035 -18.19435,-0.41011 -34.53638,-0.37309 -48.246388,-0.0902 -13.71001,0.28287 -24.792037,0.79065 -32.479332,1.03985 -7.687295,0.2492 -11.983597,0.20562 -12.073634,-0.46966 -0.09004,-0.67528 4.040697,-1.92015 11.654372,-3.35031 7.613675,-1.43016 18.714669,-3.01148 32.523974,-4.20458 13.809305,-1.19311 30.327448,-1.97646 48.696128,-2.08674 18.36869,-0.11028 38.58452,0.45377 59.73244,1.50669 1.0865,0.0538 2.17558,0.10891 3.26715,0.16545 21.53283,1.11518 42.00069,2.64868 60.59208,4.21118 18.5914,1.5625 35.30813,3.14975 49.34015,4.56438 14.03201,1.41463 25.38004,2.66345 33.21573,3.7209 7.83569,1.05745 12.1582,1.93672 12.12163,2.62575 z"
       id="path4225"
       inkscape:path-effect="#path-effect4227"
       inkscape:original-d="M 352.97549,365.3646 C 250.72969,359.93783 135.50396,345.72226 41.831836,358.21188"
       inkscape:connector-curvature="0" />
  </g>
</svg>
