<?xml version="1.0" encoding="UTF-8" standalone="no"?>
<!-- Created with Inkscape (http://www.inkscape.org/) -->

<svg
   xmlns:dc="http://purl.org/dc/elements/1.1/"
   xmlns:cc="http://creativecommons.org/ns#"
   xmlns:rdf="http://www.w3.org/1999/02/22-rdf-syntax-ns#"
   xmlns:svg="http://www.w3.org/2000/svg"
   xmlns="http://www.w3.org/2000/svg"
   xmlns:sodipodi="http://sodipodi.sourceforge.net/DTD/sodipodi-0.dtd"
   xmlns:inkscape="http://www.inkscape.org/namespaces/inkscape"
   width="744.09448819"
   height="1052.3622047"
   id="svg2"
   version="1.1"
   inkscape:version="0.48.3.1 r9886"
   sodipodi:docname="dreamcat.svg">
  <defs
     id="defs4">
    <inkscape:path-effect
       effect="skeletal"
       id="path-effect4258"
       is_visible="true"
       pattern="M 0,5 10,10 10,0 z"
       copytype="single_stretched"
       prop_scale="1"
       scale_y_rel="false"
       spacing="0"
       normal_offset="0"
       tang_offset="0"
       prop_units="false"
       vertical_pattern="false"
       fuse_tolerance="0" />
    <inkscape:path-effect
       effect="skeletal"
       id="path-effect4234"
       is_visible="true"
       pattern="M 0,5 10,10 10,0 z"
       copytype="single_stretched"
       prop_scale="1"
       scale_y_rel="false"
       spacing="0"
       normal_offset="0"
       tang_offset="0"
       prop_units="false"
       vertical_pattern="false"
       fuse_tolerance="0" />
    <inkscape:path-effect
       effect="skeletal"
       id="path-effect4179"
       is_visible="true"
       pattern="M 0,5 10,10 10,0 z"
       copytype="single_stretched"
       prop_scale="1"
       scale_y_rel="false"
       spacing="0"
       normal_offset="0"
       tang_offset="0"
       prop_units="false"
       vertical_pattern="false"
       fuse_tolerance="0" />
    <inkscape:path-effect
       effect="skeletal"
       id="path-effect4175"
       is_visible="true"
       pattern="M 0,5 10,10 10,0 z"
       copytype="single_stretched"
       prop_scale="1"
       scale_y_rel="false"
       spacing="0"
       normal_offset="0"
       tang_offset="0"
       prop_units="false"
       vertical_pattern="false"
       fuse_tolerance="0" />
    <inkscape:path-effect
       effect="skeletal"
       id="path-effect4171"
       is_visible="true"
       pattern="M 0,5 10,10 10,0 z"
       copytype="single_stretched"
       prop_scale="1"
       scale_y_rel="false"
       spacing="0"
       normal_offset="0"
       tang_offset="0"
       prop_units="false"
       vertical_pattern="false"
       fuse_tolerance="0" />
    <inkscape:path-effect
       effect="skeletal"
       id="path-effect3255"
       is_visible="true"
       pattern="m 117.1777,-19.243661 c 0,-2.76 2.24,-5 5,-5 2.76,0 5,2.24 5,5 0,2.76 -2.24,5 -5,5 -2.76,0 -5,-2.24 -5,-5 z"
       copytype="single_stretched"
       prop_scale="1"
       scale_y_rel="false"
       spacing="0"
       normal_offset="0"
       tang_offset="0"
       prop_units="false"
       vertical_pattern="false"
       fuse_tolerance="0" />
    <inkscape:path-effect
       effect="skeletal"
       id="path-effect3251"
       is_visible="true"
       pattern="m 117.1777,-19.243661 c 0,-2.76 2.24,-5 5,-5 2.76,0 5,2.24 5,5 0,2.76 -2.24,5 -5,5 -2.76,0 -5,-2.24 -5,-5 z"
       copytype="single_stretched"
       prop_scale="1"
       scale_y_rel="false"
       spacing="0"
       normal_offset="0"
       tang_offset="0"
       prop_units="false"
       vertical_pattern="false"
       fuse_tolerance="0" />
    <inkscape:path-effect
       effect="skeletal"
       id="path-effect3247"
       is_visible="true"
       pattern="m 117.1777,-19.243661 c 0,-2.76 2.24,-5 5,-5 2.76,0 5,2.24 5,5 0,2.76 -2.24,5 -5,5 -2.76,0 -5,-2.24 -5,-5 z"
       copytype="single_stretched"
       prop_scale="1"
       scale_y_rel="false"
       spacing="0"
       normal_offset="0"
       tang_offset="0"
       prop_units="false"
       vertical_pattern="false"
       fuse_tolerance="0" />
    <inkscape:path-effect
       effect="skeletal"
       id="path-effect3243"
       is_visible="true"
       pattern="m 117.1777,-19.243661 c 0,-2.76 2.24,-5 5,-5 2.76,0 5,2.24 5,5 0,2.76 -2.24,5 -5,5 -2.76,0 -5,-2.24 -5,-5 z"
       copytype="single_stretched"
       prop_scale="1"
       scale_y_rel="false"
       spacing="0"
       normal_offset="0"
       tang_offset="0"
       prop_units="false"
       vertical_pattern="false"
       fuse_tolerance="0" />
    <inkscape:path-effect
       effect="skeletal"
       id="path-effect3239"
       is_visible="true"
       pattern="m 117.1777,-19.243661 c 0,-2.76 2.24,-5 5,-5 2.76,0 5,2.24 5,5 0,2.76 -2.24,5 -5,5 -2.76,0 -5,-2.24 -5,-5 z"
       copytype="single_stretched"
       prop_scale="1"
       scale_y_rel="false"
       spacing="0"
       normal_offset="0"
       tang_offset="0"
       prop_units="false"
       vertical_pattern="false"
       fuse_tolerance="0" />
    <inkscape:path-effect
       effect="skeletal"
       id="path-effect3231"
       is_visible="true"
       pattern="m 117.1777,-19.243661 c 0,-2.76 2.24,-5 5,-5 2.76,0 5,2.24 5,5 0,2.76 -2.24,5 -5,5 -2.76,0 -5,-2.24 -5,-5 z"
       copytype="single_stretched"
       prop_scale="1"
       scale_y_rel="false"
       spacing="0"
       normal_offset="0"
       tang_offset="0"
       prop_units="false"
       vertical_pattern="false"
       fuse_tolerance="0" />
    <inkscape:path-effect
       effect="skeletal"
       id="path-effect3227"
       is_visible="true"
       pattern="m 117.1777,-19.243661 c 0,-2.76 2.24,-5 5,-5 2.76,0 5,2.24 5,5 0,2.76 -2.24,5 -5,5 -2.76,0 -5,-2.24 -5,-5 z"
       copytype="single_stretched"
       prop_scale="1"
       scale_y_rel="false"
       spacing="0"
       normal_offset="0"
       tang_offset="0"
       prop_units="false"
       vertical_pattern="false"
       fuse_tolerance="0" />
    <inkscape:path-effect
       effect="skeletal"
       id="path-effect3199"
       is_visible="true"
       pattern="m 117.1777,-19.243661 c 0,-2.76 2.24,-5 5,-5 2.76,0 5,2.24 5,5 0,2.76 -2.24,5 -5,5 -2.76,0 -5,-2.24 -5,-5 z"
       copytype="single_stretched"
       prop_scale="1"
       scale_y_rel="false"
       spacing="0"
       normal_offset="0"
       tang_offset="0"
       prop_units="false"
       vertical_pattern="false"
       fuse_tolerance="0" />
    <inkscape:path-effect
       effect="skeletal"
       id="path-effect3183"
       is_visible="true"
       pattern="m 117.1777,-19.243661 c 0,-2.76 2.24,-5 5,-5 2.76,0 5,2.24 5,5 0,2.76 -2.24,5 -5,5 -2.76,0 -5,-2.24 -5,-5 z"
       copytype="single_stretched"
       prop_scale="1"
       scale_y_rel="false"
       spacing="0"
       normal_offset="0"
       tang_offset="0"
       prop_units="false"
       vertical_pattern="false"
       fuse_tolerance="0" />
    <inkscape:path-effect
       effect="skeletal"
       id="path-effect3179"
       is_visible="true"
       pattern="m 117.1777,-19.243661 c 0,-2.76 2.24,-5 5,-5 2.76,0 5,2.24 5,5 0,2.76 -2.24,5 -5,5 -2.76,0 -5,-2.24 -5,-5 z"
       copytype="single_stretched"
       prop_scale="1"
       scale_y_rel="false"
       spacing="0"
       normal_offset="0"
       tang_offset="0"
       prop_units="false"
       vertical_pattern="false"
       fuse_tolerance="0" />
    <inkscape:path-effect
       effect="skeletal"
       id="path-effect3167"
       is_visible="true"
       pattern="m 117.1777,-19.243661 c 0,-2.76 2.24,-5 5,-5 2.76,0 5,2.24 5,5 0,2.76 -2.24,5 -5,5 -2.76,0 -5,-2.24 -5,-5 z"
       copytype="single_stretched"
       prop_scale="1"
       scale_y_rel="false"
       spacing="0"
       normal_offset="0"
       tang_offset="0"
       prop_units="false"
       vertical_pattern="false"
       fuse_tolerance="0" />
    <inkscape:path-effect
       effect="skeletal"
       id="path-effect3155"
       is_visible="true"
       pattern="m 117.1777,-19.243661 c 0,-2.76 2.24,-5 5,-5 2.76,0 5,2.24 5,5 0,2.76 -2.24,5 -5,5 -2.76,0 -5,-2.24 -5,-5 z"
       copytype="single_stretched"
       prop_scale="1"
       scale_y_rel="false"
       spacing="0"
       normal_offset="0"
       tang_offset="0"
       prop_units="false"
       vertical_pattern="false"
       fuse_tolerance="0" />
    <inkscape:path-effect
       effect="skeletal"
       id="path-effect3151"
       is_visible="true"
       pattern="m 117.1777,-19.243661 c 0,-2.76 2.24,-5 5,-5 2.76,0 5,2.24 5,5 0,2.76 -2.24,5 -5,5 -2.76,0 -5,-2.24 -5,-5 z"
       copytype="single_stretched"
       prop_scale="1"
       scale_y_rel="false"
       spacing="0"
       normal_offset="0"
       tang_offset="0"
       prop_units="false"
       vertical_pattern="false"
       fuse_tolerance="0" />
    <inkscape:path-effect
       effect="skeletal"
       id="path-effect3147"
       is_visible="true"
       pattern="m 117.1777,-19.243661 c 0,-2.76 2.24,-5 5,-5 2.76,0 5,2.24 5,5 0,2.76 -2.24,5 -5,5 -2.76,0 -5,-2.24 -5,-5 z"
       copytype="single_stretched"
       prop_scale="1"
       scale_y_rel="false"
       spacing="0"
       normal_offset="0"
       tang_offset="0"
       prop_units="false"
       vertical_pattern="false"
       fuse_tolerance="0" />
    <inkscape:path-effect
       effect="skeletal"
       id="path-effect3139"
       is_visible="true"
       pattern="m 117.1777,-19.243661 c 0,-2.76 2.24,-5 5,-5 2.76,0 5,2.24 5,5 0,2.76 -2.24,5 -5,5 -2.76,0 -5,-2.24 -5,-5 z"
       copytype="single_stretched"
       prop_scale="1"
       scale_y_rel="false"
       spacing="0"
       normal_offset="0"
       tang_offset="0"
       prop_units="false"
       vertical_pattern="false"
       fuse_tolerance="0" />
    <inkscape:path-effect
       effect="skeletal"
       id="path-effect3135"
       is_visible="true"
       pattern="m 117.1777,-19.243661 c 0,-2.76 2.24,-5 5,-5 2.76,0 5,2.24 5,5 0,2.76 -2.24,5 -5,5 -2.76,0 -5,-2.24 -5,-5 z"
       copytype="single_stretched"
       prop_scale="1"
       scale_y_rel="false"
       spacing="0"
       normal_offset="0"
       tang_offset="0"
       prop_units="false"
       vertical_pattern="false"
       fuse_tolerance="0" />
    <inkscape:path-effect
       effect="skeletal"
       id="path-effect3131"
       is_visible="true"
       pattern="m 117.1777,-19.243661 c 0,-2.76 2.24,-5 5,-5 2.76,0 5,2.24 5,5 0,2.76 -2.24,5 -5,5 -2.76,0 -5,-2.24 -5,-5 z"
       copytype="single_stretched"
       prop_scale="1"
       scale_y_rel="false"
       spacing="0"
       normal_offset="0"
       tang_offset="0"
       prop_units="false"
       vertical_pattern="false"
       fuse_tolerance="0" />
    <inkscape:path-effect
       effect="skeletal"
       id="path-effect3127"
       is_visible="true"
       pattern="m 117.1777,-19.243661 c 0,-2.76 2.24,-5 5,-5 2.76,0 5,2.24 5,5 0,2.76 -2.24,5 -5,5 -2.76,0 -5,-2.24 -5,-5 z"
       copytype="single_stretched"
       prop_scale="1"
       scale_y_rel="false"
       spacing="0"
       normal_offset="0"
       tang_offset="0"
       prop_units="false"
       vertical_pattern="false"
       fuse_tolerance="0" />
    <inkscape:path-effect
       effect="skeletal"
       id="path-effect3123"
       is_visible="true"
       pattern="m 117.1777,-19.243661 c 0,-2.76 2.24,-5 5,-5 2.76,0 5,2.24 5,5 0,2.76 -2.24,5 -5,5 -2.76,0 -5,-2.24 -5,-5 z"
       copytype="single_stretched"
       prop_scale="1"
       scale_y_rel="false"
       spacing="0"
       normal_offset="0"
       tang_offset="0"
       prop_units="false"
       vertical_pattern="false"
       fuse_tolerance="0" />
    <inkscape:path-effect
       effect="skeletal"
       id="path-effect3119"
       is_visible="true"
       pattern="m 117.1777,-19.243661 c 0,-2.76 2.24,-5 5,-5 2.76,0 5,2.24 5,5 0,2.76 -2.24,5 -5,5 -2.76,0 -5,-2.24 -5,-5 z"
       copytype="single_stretched"
       prop_scale="1"
       scale_y_rel="false"
       spacing="0"
       normal_offset="0"
       tang_offset="0"
       prop_units="false"
       vertical_pattern="false"
       fuse_tolerance="0" />
  </defs>
  <sodipodi:namedview
     id="base"
     pagecolor="#ffffff"
     bordercolor="#666666"
     borderopacity="1.0"
     inkscape:pageopacity="0.0"
     inkscape:pageshadow="2"
     inkscape:zoom="0.49497475"
     inkscape:cx="394.8763"
     inkscape:cy="760.46264"
     inkscape:document-units="px"
     inkscape:current-layer="layer1"
     showgrid="false"
     inkscape:window-width="800"
     inkscape:window-height="543"
     inkscape:window-x="0"
     inkscape:window-y="0"
     inkscape:window-maximized="1" />
  <metadata
     id="metadata7">
    <rdf:RDF>
      <cc:Work
         rdf:about="">
        <dc:format>image/svg+xml</dc:format>
        <dc:type
           rdf:resource="http://purl.org/dc/dcmitype/StillImage" />
        <dc:title></dc:title>
      </cc:Work>
    </rdf:RDF>
  </metadata>
  <g
     inkscape:label="Layer 1"
     inkscape:groupmode="layer"
     id="layer1">
    <path
       style="fill:#000000;fill-rule:evenodd;stroke:none"
       d="m 430.32499,224.0371 c -0.2746,1.08106 -2.57739,1.50922 -6.12968,1.7125 -3.55229,0.20328 -8.3566,0.19118 -13.65905,0.83945 -2.13833,0.26591 -4.28092,0.59578 -6.28165,1.19672 -0.35682,0.12007 -0.69976,0.23384 -1.02387,0.34539 -0.98272,0.33825 -1.75606,0.64647 -2.24285,1.04475 -0.25765,0.38755 -0.5251,0.30241 -0.2779,-0.21278 -0.29632,-0.62297 -0.0571,-0.38555 0.10512,0.25927 0.6789,1.24659 2.1459,2.3792 3.59018,3.56801 2.2753,1.80367 4.3901,3.23197 5.81436,4.45416 1.42427,1.2222 2.16612,2.22437 1.92259,2.95497 -0.24353,0.7306 -1.43897,1.12093 -3.41715,1.08413 -1.97818,-0.0368 -4.75309,-0.4904 -8.05187,-1.79024 -2.05823,-0.76131 -4.51308,-2.01058 -6.89398,-4.48431 -1.50072,-1.37705 -2.65943,-3.76871 -2.62506,-7.17949 0.54106,-2.99248 1.96411,-5.27349 3.77811,-6.48737 1.63328,-1.24059 3.35258,-2.11985 5.01029,-2.69689 0.54672,-0.1903 1.08069,-0.34616 1.59739,-0.47276 2.98665,-0.80744 5.8469,-1.08832 8.44331,-1.09762 3.21223,-0.0167 6.15675,0.31926 8.72953,0.83979 2.57277,0.52053 4.7751,1.2239 6.54352,1.9664 1.76843,0.74251 3.10444,1.52344 3.96359,2.24173 0.85914,0.71829 1.24237,1.37366 1.10507,1.91419 z"
       id="path3117"
       inkscape:path-effect="#path-effect3119"
       inkscape:original-d="m 430.32499,224.0371 c -30.21011,-7.67376 -50.03537,5.5449 -18.18275,16.16244"
       inkscape:connector-curvature="0" />
    <path
       style="fill:#000000;fill-rule:evenodd;stroke:none"
       d="m 505.07628,197.77313 c 0.74839,0.16573 1.26293,1.12567 1.71942,2.53936 0.22824,0.70684 0.44465,1.52473 0.70457,2.38141 0.25991,0.85668 0.56234,1.75171 1.00418,2.58903 0.57911,1.04482 1.26287,2.04616 2.04458,2.38524 0.52363,0.32543 1.27647,0.52199 2.05171,0.59381 0.71876,0.0617 1.52223,-0.03 2.30161,-0.25491 0.0454,-0.0131 0.0907,-0.0266 0.13563,-0.0406 0.76016,-0.28545 1.39675,-0.56983 1.72568,-0.90454 0.25175,-0.21299 0.53333,-0.49858 0.59923,-0.65935 0.35375,-0.39857 -0.0452,-1.44509 -0.46469,-2.59749 0,0 0,0 0,0 -0.41854,-0.95521 -0.96146,-1.83551 -1.49075,-2.65435 -0.52929,-0.81885 -1.04508,-1.57501 -1.45539,-2.26039 -0.82061,-1.37075 -1.20266,-2.45736 -0.79456,-3.13753 0.4081,-0.68017 1.5521,-0.91227 3.30118,-0.52374 0.87454,0.19427 1.89926,0.5515 3.02749,1.14924 1.12823,0.59775 2.36128,1.4368 3.60646,2.63015 0,0 0,0 0,0 1.61609,1.47634 3.14969,3.86395 3.48758,7.43098 0.0549,2.59912 -0.79437,5.17471 -2.55258,7.18613 -1.64363,1.84832 -3.70737,3.18078 -5.91073,3.85442 -0.12677,0.0416 -0.25428,0.0815 -0.38247,0.1197 -2.19913,0.65445 -4.49966,0.75537 -6.68185,0.35369 -2.59853,-0.46712 -4.92694,-1.75497 -6.69551,-3.5309 -2.29441,-2.48092 -3.18731,-5.2204 -3.32883,-7.53662 -0.0952,-1.66754 0.0792,-3.09639 0.37156,-4.28854 0.29234,-1.19215 0.70275,-2.1491 1.13586,-2.88835 0.86621,-1.47849 1.79223,-2.10159 2.54062,-1.93586 z"
       id="path3121"
       inkscape:path-effect="#path-effect3123"
       inkscape:original-d="m 505.07628,197.77313 c -5.98622,27.0321 33.96224,13.50831 8.08122,-2.0203"
       inkscape:connector-curvature="0" />
    <path
       style="fill:#000000;fill-rule:evenodd;stroke:none"
       d="m 470.73109,230.09801 c 0.39298,-0.66398 1.54317,-0.86337 3.31636,-0.49959 0.8866,0.18188 1.92964,0.51075 3.09535,1.05279 1.1657,0.54204 2.45545,1.29752 3.79921,2.37558 0,0 0,0 0,0 0.80531,0.54499 1.63422,1.33934 2.34911,2.47788 0.71488,1.13854 1.31565,2.62208 1.60693,4.53244 0.0718,1.41281 -0.19108,2.81515 -0.81402,4.10132 -0.64602,1.27118 -1.44372,2.31046 -2.3042,3.07098 -1.99172,1.76855 -4.20919,2.93912 -6.23116,3.61287 -0.68378,0.24709 -1.3774,0.47334 -2.07856,0.67867 -4.93837,1.44619 -9.6035,1.69237 -13.46883,1.51998 0,0 0,0 0,0 -2.93632,-0.1086 -5.54148,-0.487 -7.64644,-1.01951 -1.92832,-0.4868 -3.48428,-1.11523 -4.49285,-1.77739 -1.00856,-0.66215 -1.47472,-1.34232 -1.37456,-1.94327 0.10016,-0.60095 0.74152,-1.07603 1.7781,-1.49839 1.03658,-0.42236 2.47007,-0.80839 4.27834,-1.1849 1.94716,-0.41291 4.27618,-0.83031 6.88822,-1.30089 0,0 0,0 0,0 3.53196,-0.655 7.45954,-1.25751 11.2182,-2.37217 0.53365,-0.15826 1.05517,-0.32495 1.5643,-0.50102 1.4991,-0.5753 2.64752,-0.94536 3.27813,-1.454 0.21721,-0.17532 0.35719,-0.21122 0.34898,-0.15565 -0.0126,0.12289 0.0326,0.23497 0.081,0.38952 0.25712,0.0652 0.22398,-0.11875 0.0751,-0.46988 -0.14884,-0.35112 -0.41343,-0.86873 -0.6749,-1.46799 0,0 0,0 0,0 -0.58933,-0.99542 -1.26831,-1.89967 -1.90675,-2.73581 -0.63843,-0.83613 -1.23639,-1.60287 -1.70868,-2.29558 -0.94458,-1.38542 -1.36943,-2.47201 -0.97645,-3.13599 z"
       id="path3125"
       inkscape:path-effect="#path-effect3127"
       inkscape:original-d="m 470.73109,230.09801 c 27.52083,16.28828 -11.03817,20.38366 -24.24366,18.18275"
       inkscape:connector-curvature="0" />
    <path
       style="fill:#000000;fill-rule:evenodd;stroke:none"
       d="m 472.7514,246.26045 c 0.0667,-0.68677 2.66874,-1.06536 7.27759,-1.35277 4.60885,-0.28742 11.2259,-0.5107 19.37875,-0.98779 8.15285,-0.47708 17.84489,-1.22402 28.62106,-2.32572 10.77617,-1.1017 22.63945,-2.55735 35.10225,-4.1038 0.05,-0.006 0.1,-0.0124 0.14991,-0.0186 12.44695,-1.5606 24.38232,-3.01913 35.29302,-4.04755 10.91069,-1.02842 20.79306,-1.62377 29.10507,-1.77303 8.31202,-0.14926 15.05052,0.1343 19.69764,0.62697 4.64711,0.49267 7.20216,1.17115 7.20216,1.86046 0,0.68931 -2.54813,1.32428 -7.11527,2.02311 -4.56715,0.69883 -11.15207,1.48478 -19.27324,2.52907 -8.12117,1.04429 -17.78058,2.36037 -28.53766,3.88574 -10.75707,1.52537 -22.6155,3.25735 -35.13102,4.81795 -0.0503,0.006 -0.10051,0.0127 -0.15078,0.019 -12.53511,1.57689 -24.60448,2.77169 -35.62221,3.37612 -11.01774,0.60444 -20.97947,0.61847 -29.3206,0.1889 -8.34112,-0.42957 -15.06004,-1.28614 -19.66004,-2.19332 -4.6,-0.90718 -7.08328,-1.83796 -7.01663,-2.52473 z"
       id="path3129"
       inkscape:path-effect="#path-effect3131"
       inkscape:original-d="m 472.7514,246.26045 c 61.37743,5.95626 121.07985,-12.12183 181.82745,-12.12183"
       inkscape:connector-curvature="0" />
    <path
       style="fill:#000000;fill-rule:evenodd;stroke:none"
       d="m 395.9798,264.4432 c 0.29366,0.62439 -1.3505,2.10872 -4.50964,4.32647 -3.15915,2.21775 -7.82759,5.18009 -13.58575,8.82223 -5.75816,3.64215 -12.60384,7.97152 -20.18096,12.84095 -7.57712,4.86944 -15.8872,10.27978 -24.64196,15.93883 -0.35636,0.23035 -0.7121,0.46021 -1.06721,0.68956 -8.62451,5.57527 -16.87051,10.8765 -24.46303,15.57556 -7.59251,4.69906 -14.53084,8.79359 -20.46476,12.05503 -11.86783,6.52288 -19.68343,9.71457 -20.38621,8.54327 -0.35139,-0.58565 1.09837,-2.20636 3.98666,-4.67144 2.88829,-2.46508 7.21036,-5.78191 12.61892,-9.77933 5.40856,-3.99743 11.90211,-8.68031 19.19769,-13.80074 7.29558,-5.12043 15.39561,-10.678 24.07387,-16.31358 0.35646,-0.23169 0.71389,-0.46354 1.07227,-0.69553 8.80436,-5.69924 17.36339,-10.93447 25.3118,-15.43334 7.94841,-4.49886 15.28413,-8.26058 21.5708,-11.1591 6.28666,-2.89851 11.51965,-4.94016 15.24276,-6.10349 3.72312,-1.16334 5.93109,-1.45974 6.22475,-0.83535 z"
       id="path3133"
       inkscape:path-effect="#path-effect3135"
       inkscape:original-d="m 395.9798,264.4432 c -45.36466,21.33603 -89.41269,54.8598 -129.29952,78.7919"
       inkscape:connector-curvature="0" />
    <path
       style="fill:#000000;fill-rule:evenodd;stroke:none"
       d="m 444.46712,252.32137 c 0.46861,0.50646 -1.31632,3.07236 -5.01713,7.22269 -3.7008,4.15034 -9.32713,9.87447 -16.54376,16.65376 -7.21663,6.77928 -16.02808,14.60665 -25.99141,23.05835 -9.96333,8.4517 -21.07607,17.52763 -32.77252,26.95377 -0.20391,0.16434 -0.40767,0.32851 -0.61126,0.49253 -11.63053,9.37541 -22.75398,18.2173 -32.81109,26.30057 -10.05711,8.08327 -19.0487,15.40987 -26.57991,21.59238 -7.53121,6.18252 -13.61027,11.2144 -17.93752,14.58023 -4.32724,3.36582 -6.91463,5.05285 -7.40041,4.56707 -0.48578,-0.48578 1.17881,-3.10185 4.70367,-7.34865 3.52486,-4.2468 8.92224,-10.11186 15.91731,-17.02922 6.99506,-6.91735 15.59398,-14.87843 25.39411,-23.41455 9.80013,-8.53613 20.7993,-17.6463 32.43716,-27.03232 0.20384,-0.1645 0.40789,-0.32909 0.61214,-0.49377 11.71566,-9.44552 22.98201,-18.28572 33.22449,-26.31019 10.24249,-8.02447 19.46143,-15.2356 27.21639,-21.28376 7.75497,-6.04817 14.05243,-10.92803 18.53411,-14.17254 4.48169,-3.2445 7.15702,-4.84281 7.62563,-4.33635 z"
       id="path3137"
       inkscape:path-effect="#path-effect3139"
       inkscape:original-d="M 444.46712,252.32137 C 392.2348,300.65039 327.72265,344.82218 278.80211,393.74272"
       inkscape:connector-curvature="0" />
    <path
       style="fill:#000000;fill-rule:evenodd;stroke:none"
       d="m 511.13719,276.56503 c 0.15466,0.67244 -1.71001,1.77953 -5.227,3.19039 -3.51698,1.41086 -8.68646,3.12923 -15.16081,4.95547 -6.47436,1.82623 -14.25537,3.76118 -22.99984,5.49654 -8.74447,1.73536 -18.45495,3.266 -28.75911,4.20659 -0.0975,0.009 -0.19495,0.0177 -0.29237,0.0265 -6.98858,0.62941 -13.80922,0.93139 -20.28476,0.88668 -6.47553,-0.0447 -12.60504,-0.43626 -18.22406,-1.1092 -5.45126,-0.64922 -10.43018,-1.57932 -14.77627,-2.66114 -4.34609,-1.08181 -8.06015,-2.31199 -11.04346,-3.50968 -2.98331,-1.19769 -5.23797,-2.35843 -6.7049,-3.30914 -1.46694,-0.95072 -2.14886,-1.68684 -1.98938,-2.11212 0.15948,-0.42528 1.14809,-0.51443 2.84885,-0.36689 1.70077,0.14754 4.11575,0.52676 7.16187,0.97983 3.04613,0.45307 6.72577,0.97582 10.95565,1.42192 4.22987,0.44611 9.01175,0.81307 14.23035,1.01679 5.38304,0.20654 11.22854,0.23037 17.42387,0.0309 6.19533,-0.19948 12.74078,-0.6218 19.50774,-1.22778 0.0943,-0.008 0.18868,-0.0169 0.28309,-0.0254 9.97756,-0.90003 19.46884,-2.11858 28.12522,-3.32947 8.65637,-1.2109 16.47651,-2.40874 23.0792,-3.33736 6.60269,-0.92862 11.98665,-1.58862 15.75883,-1.82949 3.77219,-0.24088 5.93263,-0.0663 6.08729,0.60609 z"
       id="path3145"
       inkscape:path-effect="#path-effect3147"
       inkscape:original-d="m 511.13719,276.56503 c -43.73958,10.06007 -102.13678,22.30786 -145.46196,6.06091"
       inkscape:connector-curvature="0" />
    <path
       style="fill:#000000;fill-rule:evenodd;stroke:none"
       d="m 416.18285,290.70716 c 0.73191,-0.76883 4.29632,1.28241 9.75924,5.37173 2.73146,2.04467 5.9366,4.59423 9.53386,7.48579 3.59725,2.89156 7.58562,6.12445 11.93978,9.47715 3.67027,2.82178 7.54626,5.70174 11.72923,8.22866 1.77038,1.06005 3.56723,2.0631 5.39579,2.92562 1.52685,0.7202 3.04315,1.3257 4.5531,1.78327 2.92718,0.88318 5.82764,1.28849 8.45605,0.99864 2.94264,-0.25624 5.82408,-1.39505 8.40194,-2.85705 3.84799,-2.18508 7.04651,-5.19816 9.82972,-8.00702 0,0 10e-6,0 10e-6,0 3.8891,-3.95104 6.82289,-7.55292 9.03293,-9.97032 2.21005,-2.41739 3.68055,-3.66997 4.30239,-3.31463 0.62184,0.35534 0.34131,2.27956 -0.86989,5.4255 -1.2112,3.14593 -3.33913,7.53543 -6.87349,12.51019 0,0 0,0 0,0 -1.25505,1.77786 -2.71803,3.63766 -4.45793,5.48412 -1.7399,1.84646 -3.7571,3.67968 -6.13266,5.36086 -3.28139,2.31788 -7.32716,4.18851 -11.99703,4.91758 -4.17663,0.59094 -8.49627,0.2053 -12.55856,-1.01276 -2.03743,-0.60886 -4.01509,-1.3749 -5.9239,-2.26222 -2.286,-1.06266 -4.41422,-2.27006 -6.39451,-3.53498 -4.7027,-2.98118 -8.79239,-6.27647 -12.42776,-9.48086 -4.30231,-3.7877 -8.06965,-7.48962 -11.31884,-10.88799 -3.24919,-3.39837 -5.98106,-6.49407 -8.1631,-9.13406 -4.36409,-5.28 -6.54828,-8.73839 -5.81637,-9.50722 z"
       id="path3149"
       inkscape:path-effect="#path-effect3151"
       inkscape:original-d="m 416.18285,290.70716 c 42.18891,40.16307 64.10705,62.56906 92.93404,12.12184"
       inkscape:connector-curvature="0" />
    <path
       style="fill:#000000;fill-rule:evenodd;stroke:none"
       d="m 373.75645,181.61069 c 0.47885,0.4968 0.0592,1.79663 -1.01933,3.74466 -1.07851,1.94804 -2.8104,4.55033 -4.92067,7.72473 -2.11027,3.17439 -4.59566,6.92513 -7.21094,11.16414 -2.61529,4.23901 -5.35891,8.96789 -8.05105,14.04876 -2.69214,5.08087 -5.0812,10.03243 -7.17317,14.59925 -2.09197,4.56681 -3.88873,8.74741 -5.43425,12.27472 -1.54551,3.52731 -2.8431,6.40108 -3.93619,8.3554 -1.09309,1.95432 -1.98694,2.98931 -2.66051,2.83963 -0.67357,-0.14968 -1.06345,-1.47372 -1.12356,-3.76116 -0.0601,-2.28744 0.21496,-5.53898 0.93857,-9.49127 0.72361,-3.95228 1.90052,-8.60502 3.63471,-13.63764 1.73419,-5.03263 4.0293,-10.44304 6.91616,-15.87102 2.88687,-5.42799 6.09134,-10.35205 9.31986,-14.58062 3.22851,-4.22858 6.4771,-7.76272 9.40928,-10.51214 2.93218,-2.74943 5.54323,-4.71839 7.51949,-5.87794 1.97625,-1.15954 3.31275,-1.5163 3.7916,-1.0195 z"
       id="path3153"
       inkscape:path-effect="#path-effect3155"
       inkscape:original-d="m 373.75645,181.61069 c -20.95198,20.19498 -34.44135,47.90991 -40.40611,74.75129"
       inkscape:connector-curvature="0" />
    <path
       style="fill:#000000;fill-rule:evenodd;stroke:none"
       d="m 420.22346,161.40764 c -0.003,-0.68999 2.3157,-1.34927 6.50082,-2.00296 4.18512,-0.65368 10.23767,-1.31919 17.7416,-1.95367 7.50394,-0.63449 16.46296,-1.24585 26.46462,-1.52005 10.00167,-0.27419 21.05012,-0.20234 32.67543,0.79463 0.43098,0.037 0.86124,0.0751 1.29075,0.11437 7.60723,0.69518 14.98468,1.79483 21.90292,3.30891 6.91824,1.51408 13.3757,3.44265 19.19789,5.66726 5.88908,2.25159 11.09263,4.8315 15.5006,7.43665 4.40798,2.60516 8.02335,5.23218 10.83536,7.58115 2.81201,2.34896 4.82557,4.41629 6.06912,5.95765 1.24355,1.54136 1.72252,2.55322 1.425,2.90033 -0.29752,0.34711 -1.35107,0.01 -3.08134,-0.84424 -1.73027,-0.85428 -4.1424,-2.2215 -7.22342,-3.8617 -3.08102,-1.64021 -6.83575,-3.55028 -11.24094,-5.47285 -4.40519,-1.92257 -9.46391,-3.85559 -15.0827,-5.56302 -5.57741,-1.69719 -11.7103,-3.17988 -18.29176,-4.37595 -6.58145,-1.19608 -13.61153,-2.10654 -20.92223,-2.77697 -0.41312,-0.0378 -0.8271,-0.0749 -1.24193,-0.11121 -11.18939,-0.97904 -21.94164,-1.31844 -31.79008,-1.54379 -9.84843,-0.22534 -18.78821,-0.34516 -26.31622,-0.61618 -7.52801,-0.27102 -13.64121,-0.68507 -17.86173,-1.22876 -4.22053,-0.54368 -6.54913,-1.19961 -6.55176,-1.8896 z"
       id="path3177"
       inkscape:path-effect="#path-effect3179"
       inkscape:original-d="m 420.22346,161.40764 c 54.25224,-0.20702 117.12632,-8.12526 159.60411,28.28427"
       inkscape:connector-curvature="0" />
    <path
       style="fill:#000000;fill-rule:evenodd;stroke:none"
       d="m 432.34529,355.35693 c 0.0656,-0.35155 0.97169,-0.53447 2.63004,-0.57914 1.65835,-0.0447 4.06952,0.0499 7.14637,0.21428 3.07685,0.16441 6.81967,0.40016 11.13598,0.57976 4.31631,0.1796 9.20612,0.30411 14.56933,0.16807 0,0 1e-5,0 1e-5,0 3.61101,-0.0968 7.42957,-0.29788 11.36645,-0.7519 3.93688,-0.45401 7.99191,-1.16089 12.0487,-2.32985 5.03157,-1.4573 10.08041,-3.5851 14.34246,-6.87132 3.26991,-2.4766 6.1641,-5.71411 8.49982,-9.44667 2.13391,-3.39011 3.82849,-7.29444 5.38189,-11.47296 0.8131,-2.20456 1.57731,-4.50226 2.36496,-6.86852 0.6161,-1.8509 1.23992,-3.72185 1.90548,-5.59807 1.40332,-4.0232 3.09485,-8.16575 5.50393,-12.07358 2.53258,-3.96111 5.95966,-7.43547 10.11075,-9.91071 7.14008,-2.61085 13.73031,-5.8067 19.48845,-9.42314 5.75814,-3.61645 10.68456,-7.65324 14.72928,-11.86612 0,0 0,0 10e-6,0 4.19158,-4.3466 7.41284,-8.89122 9.93175,-13.12534 2.5189,-4.23411 4.33863,-8.16065 5.72628,-11.44661 1.38765,-3.28596 2.34777,-5.93597 3.08864,-7.73376 0.74087,-1.79778 1.26835,-2.74698 1.65383,-2.68273 0.38548,0.0642 0.60927,1.14062 0.57396,3.13832 -0.0353,1.99771 -0.33453,4.92075 -1.15535,8.59793 -0.82083,3.67717 -2.16826,8.11326 -4.38671,12.98773 -2.21845,4.87448 -5.31278,10.19021 -9.63989,15.41818 -10e-6,0 -10e-6,0 -10e-6,1e-5 -4.10275,4.94444 -9.21389,9.71212 -15.25304,13.94965 -6.03916,4.23754 -13.00621,7.94237 -20.57658,10.8488 -2.32332,1.4094 -4.3051,3.71835 -5.88506,6.42929 -1.80187,2.92391 -3.14202,6.42476 -4.49085,10.21142 -0.61729,1.76418 -1.21766,3.5809 -1.83621,5.43808 -0.79076,2.37429 -1.60039,4.7789 -2.49882,7.18316 -1.69247,4.56204 -3.75504,9.08464 -6.44595,13.27551 -3.00869,4.66483 -6.81787,8.69492 -11.16209,11.82029 -5.67315,4.02343 -11.85212,6.40602 -17.76523,7.77193 -4.71161,1.09289 -9.26649,1.641 -13.5807,1.87372 -4.31421,0.23271 -8.38802,0.15016 -12.16929,-0.0781 0,0 -10e-6,0 -10e-6,0 -5.62021,-0.33128 -10.65446,-0.97044 -15.03985,-1.70125 -4.38538,-0.73081 -8.12246,-1.55429 -11.1514,-2.33418 -3.02894,-0.77989 -5.35012,-1.51766 -6.8996,-2.13761 -1.54948,-0.61994 -2.32735,-1.12306 -2.26173,-1.47461 z"
       id="path3197"
       inkscape:path-effect="#path-effect3199"
       inkscape:original-d="m 432.34529,355.35693 c 110.94151,20.70937 81.71842,-44.18232 109.09648,-60.60915 28.35892,-10.63625 47.52824,-30.61098 52.52793,-60.60916"
       inkscape:connector-curvature="0" />
    <path
       style="fill:#000000;fill-rule:evenodd;stroke:none"
       d="m 351.53309,282.62594 c 0.47026,-0.17346 1.09948,0.15342 1.87887,0.86019 0.77938,0.70676 1.71247,1.79296 2.84033,3.13182 2.25574,2.67771 5.32339,6.37415 9.47509,10.00255 3.13408,2.76056 6.93813,5.504 11.23681,8.16168 1.01794,0.62935 2.03705,1.23956 3.05034,1.83282 2.65657,1.55004 5.30008,2.97546 7.81951,4.33884 2.51943,1.36339 4.91334,2.66503 7.07776,3.92009 1.8824,1.08271 3.63668,2.14526 5.15038,3.18325 1.51371,1.03798 2.78698,2.04888 3.76399,2.97628 1.954,1.85479 2.71118,3.33486 2.25516,4.01889 -0.45602,0.68403 -2.01594,0.53069 -4.44884,-0.0226 -1.21645,-0.27667 -2.66123,-0.65113 -4.33148,-1.11371 -1.67026,-0.46257 -3.56815,-1.01201 -5.66923,-1.71175 -4.75148,-1.55295 -10.47409,-3.66821 -16.4808,-6.91517 -1.14692,-0.61797 -2.29984,-1.28068 -3.44956,-1.99092 -4.85514,-2.99927 -9.12211,-6.56594 -12.4169,-10.30157 -2.19159,-2.49793 -3.9075,-5.04343 -5.1943,-7.42292 -1.2868,-2.3795 -2.14709,-4.59183 -2.67292,-6.47135 -0.52583,-1.87952 -0.72049,-3.42604 -0.67682,-4.53181 0.0437,-1.10577 0.32235,-1.7711 0.79261,-1.94456 z"
       id="path3225"
       inkscape:path-effect="#path-effect3227"
       inkscape:original-d="m 351.53309,282.62594 c 10.34264,28.03961 40.94039,33.35451 54.54824,42.42641"
       inkscape:connector-curvature="0" />
    <path
       style="fill:#000000;fill-rule:evenodd;stroke:none"
       d="m 505.07628,369.49906 c 0.27085,-0.19554 0.938,0.1549 1.93393,1.05734 0.99593,0.90244 2.32186,2.35927 3.80981,4.42019 1.48795,2.06092 3.13986,4.72907 4.66173,8.05552 1.52186,3.32644 2.91498,7.31425 3.73367,11.96853 0,0 0,0 0,1e-5 0.66698,3.93556 0.89157,8.26334 0.53279,12.83629 -0.35879,4.57296 -1.30237,9.39105 -2.88327,14.22767 -1.40083,4.29387 -3.23597,8.60959 -5.45439,12.8804 -2.21842,4.2708 -4.81983,8.49646 -7.69447,12.62359 -4.0442,5.82555 -8.63294,11.5277 -13.58024,17.08593 -1.92007,2.15716 -3.85689,4.2529 -5.79415,6.2924 -7.32644,7.71993 -14.6768,14.67869 -21.54511,21.06254 -7.3122,6.80055 -14.06133,12.91894 -19.82044,18.5074 -3.04205,2.96795 -5.81831,5.72001 -8.21454,8.32427 -2.39622,2.60426 -4.41556,5.05956 -6.0751,7.34022 -1.83055,2.523 -3.16753,4.75876 -4.04343,6.68928 -0.8512,1.88897 -1.29987,3.45117 -1.59666,4.54752 -0.29679,1.09634 -0.48673,1.7414 -0.80264,1.78653 -0.31591,0.0451 -0.75108,-0.52722 -1.06016,-1.77677 -0.30908,-1.24956 -0.45475,-3.20348 -0.005,-5.60724 0.44586,-2.43072 1.45132,-5.33095 3.03033,-8.37941 1.4126,-2.73946 3.24308,-5.68858 5.47112,-8.74861 2.22805,-3.06002 4.85618,-6.22867 7.71669,-9.47514 5.44101,-6.20344 11.93926,-12.83355 18.94892,-19.88009 6.59694,-6.63504 13.68405,-13.66441 20.73858,-21.222 1.86646,-2.00135 3.7317,-4.03739 5.57988,-6.11284 4.76209,-5.34766 9.17182,-10.7017 13.06619,-16.08819 2.75674,-3.82635 5.26779,-7.64689 7.4308,-11.44745 2.16302,-3.80056 3.97776,-7.58133 5.39997,-11.32053 1.58267,-4.16544 2.68014,-8.29122 3.29829,-12.21636 0.61814,-3.92514 0.75772,-7.65027 0.51246,-11.08204 0,0 0,0 0,0 -0.26066,-4.06269 -1.05309,-7.72354 -1.97413,-10.90856 -0.92104,-3.18501 -1.97241,-5.89641 -2.88012,-8.11361 -0.90771,-2.2172 -1.67365,-3.94327 -2.12462,-5.17098 -0.45097,-1.2277 -0.58759,-1.96027 -0.31674,-2.15581 z"
       id="path3229"
       inkscape:path-effect="#path-effect3231"
       inkscape:original-d="m 505.07628,369.49906 c 50.43369,69.85853 -87.79161,134.99192 -82.83251,169.70563"
       inkscape:connector-curvature="0" />
    <path
       style="fill:#000000;fill-rule:evenodd;stroke:none"
       d="m 420.22346,537.18439 c 0.0869,-0.38824 0.71595,-0.64572 1.83317,-0.77235 1.11722,-0.12663 2.72361,-0.12524 4.76697,0.0488 2.04337,0.17403 4.52579,0.51789 7.37269,1.16503 2.8469,0.64715 6.06041,1.59635 9.5111,3.10153 0,10e-6 0,10e-6 0,10e-6 2.04621,0.87155 4.31395,2.09175 6.52365,4.06683 1.43973,1.18966 2.78671,3.07338 3.51478,5.77548 0.42441,2.37929 0.0536,4.67644 -1.02732,6.57045 -1.18988,2.05492 -2.68806,3.62233 -4.19029,4.71513 -3.95938,3.00458 -8.55294,4.91642 -12.99935,6.21064 -1.91818,0.58525 -3.87802,1.09668 -5.86888,1.53521 -3.87565,0.85369 -7.70196,1.39556 -11.39873,1.71482 -6.67046,0.58708 -13.05772,0.43825 -18.81411,-0.29237 -3.33473,-0.41402 -6.50075,-1.03997 -9.39168,-1.85355 -2.89093,-0.81358 -5.50668,-1.81359 -7.78654,-2.91743 0,0 0,0 0,0 -2.16722,-1.02666 -4.04645,-2.20992 -5.56057,-3.40233 -1.51413,-1.1924 -2.66685,-2.39137 -3.48491,-3.45584 -0.81805,-1.06447 -1.3058,-1.99221 -1.53228,-2.68512 -0.22649,-0.69291 -0.19567,-1.14967 0.045,-1.34219 0.24065,-0.19252 0.6793,-0.11529 1.30114,0.14834 0.62185,0.26363 1.43011,0.71063 2.46014,1.23657 1.03003,0.52594 2.28602,1.12828 3.79655,1.72356 1.51053,0.59528 3.27962,1.18184 5.26636,1.72899 0,0 0,0 0,0 2.11935,0.56288 4.48947,1.04246 7.09987,1.39502 2.61041,0.35257 5.46197,0.57755 8.51207,0.69387 5.24596,0.18324 11.01136,-0.0418 17.08762,-0.75955 3.37599,-0.40477 6.81683,-0.94389 10.25352,-1.69764 1.76537,-0.38719 3.49087,-0.82292 5.17055,-1.31055 4.01623,-1.22936 7.56707,-2.42725 10.16068,-4.3026 0.90233,-0.69784 1.59996,-1.20079 1.83986,-1.65711 0.11558,-0.20754 0.26904,-0.3757 0.2493,-0.28954 0.17925,-0.13143 -0.23929,-0.63395 -0.75232,-1.38027 -0.98398,-1.19116 -2.48809,-2.18644 -4.07736,-3.19265 0,0 0,0 0,0 -2.73076,-1.6876 -5.43246,-2.98931 -7.88897,-4.09975 -2.45651,-1.11044 -4.66796,-2.0273 -6.48643,-2.83468 -3.63692,-1.61477 -5.67915,-2.80827 -5.50526,-3.58475 z"
       id="path3237"
       inkscape:path-effect="#path-effect3239"
       inkscape:original-d="m 420.22346,537.18439 c 79.62672,17.83156 -26.44308,45.73804 -48.48732,18.18274"
       inkscape:connector-curvature="0" />
    <path
       style="fill:#000000;fill-rule:evenodd;stroke:none"
       d="m 430.32499,397.78333 c 0.46816,-0.092 1.19481,1.10319 2.01786,3.48291 0.82305,2.37972 1.73617,5.9499 2.38447,10.58057 0.6483,4.63068 1.02562,10.3274 0.6777,16.8431 -0.34792,6.51569 -1.4272,13.85266 -3.69948,21.58596 -2.03842,6.87827 -4.9653,13.99692 -8.79935,21.05521 -3.83405,7.05829 -8.57435,14.05406 -14.05811,20.70215 -0.58514,0.70938 -1.17496,1.41043 -1.76892,2.10307 -6.0424,7.0568 -12.47609,13.29607 -18.90203,18.7728 -6.42594,5.47673 -12.84168,10.19323 -18.90455,14.23254 -11.7005,7.80276 -22.11089,13.1438 -29.58151,16.42056 -3.7353,1.63838 -6.74285,2.75901 -8.85948,3.38002 -2.11663,0.62101 -3.34223,0.74355 -3.54216,0.34369 -0.19993,-0.39986 0.63746,-1.29756 2.36284,-2.64522 1.72539,-1.34766 4.33864,-3.14652 7.66864,-5.39113 6.66001,-4.48922 16.20555,-10.75004 27.02413,-19.01424 5.60277,-4.28392 11.54961,-9.10315 17.51867,-14.51385 5.96907,-5.4107 11.95752,-11.41395 17.60892,-18.07117 0.55302,-0.65251 1.10291,-1.31139 1.64918,-1.97659 5.11953,-6.234 9.61237,-12.66046 13.33258,-19.07987 3.72021,-6.41942 6.6666,-12.83148 8.85735,-19.03216 2.46704,-6.92329 3.96013,-13.58521 4.86527,-19.59488 0.90514,-6.00966 1.22613,-11.36907 1.34792,-15.81832 0.12178,-4.44924 0.0495,-7.99351 0.10025,-10.44807 0.0507,-2.45456 0.23165,-3.82504 0.69981,-3.91708 z"
       id="path3241"
       inkscape:path-effect="#path-effect3243"
       inkscape:original-d="m 430.32499,397.78333 c 14.60338,74.27969 -52.38911,124.17936 -103.03556,149.50258"
       inkscape:connector-curvature="0" />
    <path
       style="fill:#000000;fill-rule:evenodd;stroke:none"
       d="m 339.41126,557.38744 c 0.40599,-0.75787 3.46814,-0.0711 8.50762,1.93142 2.51974,1.00128 5.53288,2.33739 8.92469,4.05511 3.3918,1.71772 7.16332,3.81683 11.15619,6.4039 2.56595,1.65811 5.28538,3.57685 7.96424,5.98545 1.61611,1.40373 3.35199,3.20739 4.82944,5.67509 0,0 0,10e-6 0,10e-6 0.50658,0.84164 0.95911,1.89081 1.28024,3.15855 0.26837,1.0381 0.32407,2.24834 0.10732,3.59272 -0.24536,1.24923 -0.73521,2.38079 -1.44455,3.34801 0,0 0,0 0,10e-6 -0.76406,1.00819 -1.58821,1.77899 -2.41148,2.31699 0,10e-6 0,10e-6 -1e-5,10e-6 -2.03535,1.31824 -4.04571,2.04388 -5.77871,2.39763 -2.35744,0.55636 -4.68596,0.83353 -6.91487,0.96588 -2.14602,0.13324 -4.30253,0.17139 -6.46015,0.13293 -3.7522,-0.0669 -7.37574,-0.36014 -10.84315,-0.7358 -7.23467,-0.77108 -14.01508,-1.95797 -20.19073,-3.27738 -7.78292,-1.66106 -14.65196,-3.55986 -20.29104,-5.41046 -1e-5,0 -1e-5,0 -1e-5,0 -5.50578,-1.80601 -9.86199,-3.5773 -12.76548,-5.05576 -2.90348,-1.47847 -4.36334,-2.64157 -4.15688,-3.26096 0.20646,-0.61939 2.05209,-0.64307 5.23004,-0.27674 3.17795,0.36632 7.69626,1.09976 13.30349,2.01587 0,0 10e-6,0 10e-6,0 5.73411,0.93524 12.58495,2.0554 20.25122,3.13711 6.08921,0.85803 12.66405,1.70447 19.5613,2.28581 3.34174,0.27597 6.71659,0.51648 10.0882,0.58285 1.93878,0.0382 3.83767,0.017 5.69363,-0.083 1.92626,-0.10978 3.70147,-0.26686 5.29118,-0.61673 1.22346,-0.32503 2.1354,-0.51666 2.55688,-0.85363 0,0 0,0 0,0 0.12409,-0.10026 0.1678,-0.0902 0.0753,0.008 0,0 0,0 0,0 -0.0958,0.13582 -0.15058,0.30819 -0.2008,0.55262 -0.004,0.24908 -0.0138,0.32759 0.0161,0.2879 0.0209,-0.0893 -0.0837,-0.31978 -0.23764,-0.67874 0,0 0,-1e-5 -1e-5,-1e-5 -0.52155,-1.16577 -1.61911,-2.3535 -2.85379,-3.68923 -2.02385,-2.11043 -4.2871,-3.98976 -6.52776,-5.78558 -3.49676,-2.7948 -6.82878,-5.23621 -9.8112,-7.39411 -2.98243,-2.15789 -5.61529,-4.03128 -7.7584,-5.6321 -4.28622,-3.20165 -6.5965,-5.32572 -6.19051,-6.08359 z"
       id="path3245"
       inkscape:path-effect="#path-effect3247"
       inkscape:original-d="m 339.41126,557.38744 c 92.52556,49.56629 -7.21553,35.98062 -48.48732,22.22335"
       inkscape:connector-curvature="0" />
    <path
       style="fill:#000000;fill-rule:evenodd;stroke:none"
       d="m 393.9595,375.55998 c 0.29604,0.35861 -0.44068,1.53167 -1.99847,3.45321 -1.5578,1.92155 -3.93048,4.59883 -6.85828,8.04609 -2.92781,3.44725 -6.40584,7.67154 -10.21077,12.65711 -3.80494,4.98558 -7.93433,10.73697 -12.25689,17.12 -4.17782,6.18013 -8.52998,12.96232 -13.04628,20.19789 -4.5163,7.23558 -9.19881,14.92411 -14.13131,22.83883 -0.48314,0.77524 -0.96583,1.54794 -1.44814,2.31784 -5.09908,8.15202 -10.16769,16.01873 -15.25947,23.29626 -5.09178,7.27754 -10.20767,13.96348 -15.24716,19.85952 -4.80592,5.63833 -9.59251,10.54769 -14.09325,14.59257 -4.50074,4.04487 -8.7113,7.2308 -12.32723,9.60831 -3.61593,2.37751 -6.63224,3.95591 -8.77764,4.85861 -2.14541,0.90269 -3.41541,1.13992 -3.64464,0.75786 -0.22923,-0.38206 0.59286,-1.35829 2.2446,-2.91735 1.65174,-1.55906 4.12736,-3.71067 7.15515,-6.54906 3.02779,-2.83839 6.60342,-6.37303 10.48173,-10.65621 3.87831,-4.28318 8.05711,-9.32112 12.36706,-15.00428 4.51233,-5.9669 9.16721,-12.65345 13.92609,-19.9134 4.75888,-7.25995 9.62427,-15.09284 14.69559,-23.22768 0.47784,-0.76768 0.95743,-1.53817 1.43887,-2.31122 4.91517,-7.89235 9.72903,-15.5644 14.49552,-22.77209 4.7665,-7.20769 9.48677,-13.94924 14.10815,-20.04048 4.77086,-6.29865 9.46099,-11.9057 13.86545,-16.65506 4.40446,-4.74937 8.51912,-8.64458 12.07182,-11.6604 3.5527,-3.01583 6.53794,-5.15899 8.68946,-6.46695 2.15153,-1.30795 3.464,-1.78853 3.76004,-1.42992 z"
       id="path3249"
       inkscape:path-effect="#path-effect3251"
       inkscape:original-d="m 393.9595,375.55998 c -52.7113,43.51349 -75.36146,127.24126 -129.29953,159.6041"
       inkscape:connector-curvature="0" />
    <path
       style="fill:#000000;fill-rule:evenodd;stroke:none"
       d="m 511.13719,379.60059 c 19.20641,-6.89905 38.45081,-13.69594 57.85935,-19.88834 7.45579,-2.37858 14.92242,-4.67188 22.43901,-6.6713 0,0 10e-6,0 10e-6,-1e-5 2.88219,-0.76648 5.75984,-1.48671 8.63995,-2.10181 2.19487,-0.46708 4.35381,-0.88092 6.47947,-1.11773 1.44807,-0.13867 2.70385,-0.27662 3.69339,-0.08 0,0 0,0 10e-6,0 0.29224,0.0855 0.39921,0.0814 0.25591,0.0687 -0.22942,-0.0363 -0.45694,-0.33953 -0.79379,-0.93163 -0.11663,-0.63642 -0.18966,-0.92749 -0.10303,-0.93865 0.006,0.0325 -0.15011,0.20084 -0.37221,0.53578 0,0 0,0 0,1e-5 -0.82188,1.11623 -2.05569,2.14014 -3.41899,3.30522 -2.19144,1.82498 -4.55224,3.51987 -6.98583,5.20693 -3.46985,2.40117 -7.03549,4.69654 -10.64964,6.95847 -10.83406,6.77972 -21.9465,13.15171 -33.14908,19.44816 l 5.14496,8.57492 c 10.87826,-6.95206 21.73625,-14.02906 32.33226,-21.52655 3.53672,-2.50215 7.06061,-5.06639 10.51281,-7.75606 2.40744,-1.87329 4.82553,-3.83426 7.13838,-5.98707 1.38398,-1.26109 2.88239,-2.7384 4.17738,-4.61428 0.39409,-0.53603 0.80687,-1.28903 1.13754,-2.27291 0.30166,-0.68495 0.32482,-1.71999 -0.0338,-3.02098 -0.55938,-1.20316 -1.2976,-1.97689 -2.10131,-2.31833 -10e-6,-1e-5 -2e-5,-1e-5 -2e-5,-1e-5 -0.94772,-0.44015 -1.75272,-0.62765 -2.36459,-0.65316 0,0 0,0 0,0 -1.97429,-0.16725 -3.72351,0.0625 -5.23126,0.34784 -2.391,0.41105 -4.69361,0.98509 -6.93135,1.60055 -2.95793,0.81069 -5.86784,1.71659 -8.74662,2.66086 -10e-6,10e-6 -10e-6,10e-6 -10e-6,10e-6 -7.50582,2.46159 -14.8878,5.19563 -22.21978,8.00314 -19.09188,7.30972 -37.92513,15.1904 -56.70908,23.16827 z"
       id="path4169"
       inkscape:path-effect="#path-effect4171"
       inkscape:original-d="m 511.13719,379.60059 c 82.15713,-32.1725 155.72004,-57.4706 46.46701,8.08122"
       inkscape:connector-curvature="0" />
    <path
       style="fill:#000000;fill-rule:evenodd;stroke:none"
       d="m 377.79705,379.60059 c -27.88361,2.95368 -55.86765,4.48463 -83.86152,6.20627 -10.73578,0.65963 -21.4972,1.32335 -32.2569,2.43238 -4.06796,0.41889 -8.15511,0.90661 -12.24148,1.58936 0,0 0,0 -1e-5,0 -3.02807,0.50113 -6.12431,1.11129 -9.20308,2.09794 -1.12272,0.35804 -2.28021,0.79526 -3.43689,1.37252 -0.8773,0.42354 -1.81045,1.00766 -2.7109,1.82937 -0.7231,0.62887 -1.36502,1.55521 -1.78238,2.77597 -0.32939,1.22304 -0.28421,2.4074 0.0795,3.44249 0,0 1e-5,1e-5 1e-5,2e-5 0.44707,1.2377 1.07623,2.21006 1.73167,2.93182 0.89844,1.04123 1.86733,1.89806 2.81544,2.62698 2.902,2.25003 6.02557,3.9839 9.06548,5.54108 1e-5,10e-6 1e-5,10e-6 1e-5,10e-6 4.69467,2.42278 9.49863,4.53953 14.29506,6.54122 6.65412,2.7791 13.37642,5.3483 20.10844,7.8249 19.71418,7.25325 39.65519,13.80918 59.59529,20.20626 l 2.87348,-9.57826 c -20.12299,-5.62185 -40.17029,-11.37412 -59.97702,-17.81771 -6.76108,-2.19973 -13.47617,-4.47585 -20.10054,-6.95157 -4.78689,-1.7908 -9.50183,-3.65272 -14.05052,-5.78882 0,0 -1e-5,-10e-6 -1e-5,-10e-6 -2.9859,-1.41478 -5.84333,-2.8326 -8.30772,-4.62546 -0.79129,-0.5815 -1.49768,-1.13713 -2.03498,-1.7334 0,0 0,-1e-5 -1e-5,-1e-5 -0.3668,-0.44412 -0.65445,-0.76458 -0.70981,-0.99379 -0.0237,-0.096 -0.0679,-0.15842 -0.0644,-0.0837 -0.064,0.002 0.07,-0.13343 0.25989,-0.38621 0.30191,-0.33941 0.80287,-0.65199 1.40617,-1.00413 0.79091,-0.44307 1.6862,-0.8135 2.6436,-1.16769 2.6445,-0.97295 5.4839,-1.63564 8.40267,-2.24403 0,0 0,0 10e-6,0 3.90666,-0.80853 7.87853,-1.43544 11.88137,-2.00381 10.58904,-1.50243 21.27353,-2.57045 31.97606,-3.63929 27.89383,-2.78433 55.8531,-5.38704 83.60397,-9.4007 z"
       id="path4173"
       inkscape:path-effect="#path-effect4175"
       inkscape:original-d="m 377.79705,379.60059 c -119.47234,14.96203 -232.97525,3.64653 -36.36549,62.62946"
       inkscape:connector-curvature="0" />
    <path
       style="fill:#000000;fill-rule:evenodd;stroke:none"
       d="M 296.98485,476.57523 C 256.1756,472.30496 216.25877,462.42799 177.03313,450.67104 137.86365,438.92544 99.25455,425.27196 59.962454,413.17876 l -2.747212,9.61524 c 39.485781,10.41476 78.707708,22.51194 118.478498,32.69801 39.82729,10.20601 80.34203,18.47494 121.29111,21.08322 z"
       id="path4177"
       inkscape:path-effect="#path-effect4179"
       inkscape:original-d="M 296.98485,476.57523 C 214.86877,469.66658 136.90915,440.36361 58.588848,417.98638"
       inkscape:connector-curvature="0" />
    <path
       style="fill:#000000;fill-rule:evenodd;stroke:none"
       d="m 343.45187,211.91527 c -6.22326,-11.32176 -12.45106,-22.64194 -18.49299,-34.04996 -4.60216,-8.69018 -9.12452,-17.41111 -13.16348,-26.31789 -2.73845,-6.05583 -5.36573,-12.11211 -6.81524,-18.35197 -0.46655,-2.04078 -0.81527,-4.02735 -0.7559,-5.90878 0.0732,-1.34568 0.24343,-2.5712 0.79069,-3.37598 0.37384,-0.66929 1.11049,-1.21231 1.91198,-1.5286 1.14651,-0.48702 2.62058,-0.52853 4.22485,-0.49734 5.51116,0.18902 11.0203,2.18033 16.69169,4.21337 10e-6,0 10e-6,0 10e-6,0 9.28506,3.40166 18.31276,7.60271 27.34219,11.95951 12.98043,6.26973 25.78027,12.94959 38.55806,19.74093 l 4.47214,-8.94428 c -13.1457,-6.1704 -26.37466,-12.25524 -39.79931,-17.93564 -9.30465,-3.94063 -18.76554,-7.77229 -28.54332,-10.82001 0,0 0,0 0,-1e-5 -5.79808,-1.84732 -12.04438,-3.65006 -18.63996,-3.6428 0,0 0,0 -10e-6,0 -1.9841,-0.0227 -4.1785,0.25721 -6.33265,1.17905 0,0 0,0 -1e-5,0 -1.75735,0.77593 -3.25939,2.11996 -4.22634,3.88849 -0.97382,1.96088 -1.25599,3.97446 -1.16817,5.78509 0.0795,2.48279 0.58602,4.81842 1.22493,6.99958 1.92633,6.65302 4.93771,12.77977 8.00652,18.71972 4.53287,8.79967 9.50491,17.32268 14.54004,25.78236 6.61244,11.11083 13.39554,22.10698 20.17428,33.10516 z"
       id="path4232"
       inkscape:path-effect="#path-effect4234"
       inkscape:original-d="M 343.45187,211.91527 C 285.43879,112.32684 275.66962,93.171329 395.9798,153.32642"
       inkscape:connector-curvature="0" />
    <path
       style="fill:#000000;fill-rule:evenodd;stroke:none"
       d="m 525.27932,151.30611 c 9.23863,-4.9097 18.33813,-10.10259 27.2976,-15.54151 6.72324,-4.08158 13.35192,-8.31249 19.96951,-12.53317 0,0 0,0 10e-6,-1e-5 4.5201,-2.88097 8.96018,-5.78975 13.55617,-8.22274 1.53064,-0.80594 3.02239,-1.54137 4.51118,-2.04786 1.07834,-0.3405 2.01875,-0.61154 2.76562,-0.53704 0.46027,0.0527 0.87385,0.1689 1.01115,0.37223 0,1e-5 0,1e-5 0,1e-5 0.32048,0.20372 0.56925,0.81765 0.90828,1.56981 0,0 0,0 0,0 0.44601,1.1465 0.66165,2.50559 0.86661,3.99268 0.26601,2.07848 0.36154,4.22868 0.41765,6.43755 0.16272,6.65307 -0.1248,13.37107 -0.37903,20.1784 -0.3846,10.16884 -0.83102,20.35485 -1.17346,30.57531 l 10,0 c -0.34244,-10.15234 -0.58069,-20.3385 -0.88064,-30.54229 -0.19774,-6.78727 -0.37243,-13.67647 -1.00274,-20.59498 -0.20742,-2.30101 -0.47949,-4.66097 -0.94204,-7.04095 -0.31078,-1.66899 -0.76704,-3.46618 -1.56719,-5.26483 0,0 0,-10e-6 0,-10e-6 -0.51961,-1.27713 -1.44523,-2.62844 -2.88128,-3.75509 -1.40103,-0.96178 -2.94638,-1.37491 -4.41581,-1.30841 -10e-6,0 -10e-6,0 -10e-6,0 -1.77802,0.0926 -3.30462,0.56585 -4.58043,1.13823 -1.82726,0.77938 -3.48352,1.72706 -5.03561,2.69494 -4.66469,2.89567 -8.97618,6.14848 -13.2662,9.31206 0,0 0,0 0,0 -6.32005,4.65573 -12.62739,9.30613 -19.03568,13.81151 -8.54313,6.00635 -17.25551,11.78727 -26.14366,17.30616 z"
       id="path4256"
       inkscape:path-effect="#path-effect4258"
       inkscape:original-d="m 525.27932,151.30611 c 81.8805,-47.10696 74.75129,-71.83456 74.75129,24.24366"
       inkscape:connector-curvature="0" />
  </g>
</svg>
